<svg width="227" height="188" viewBox="0 0 227 188" fill="none" xmlns="http://www.w3.org/2000/svg">
<g clip-path="url(#clip0_34_38)">
<path d="M36.2769 160.062H0V188H36.2769V160.062Z" fill="#004186"/>
<path opacity="0.5" d="M227 160.062H36.2769V188H227V160.062Z" fill="#91D8F6"/>
<path opacity="0.2" d="M193.843 0H227V26.8651H193.843V0Z" fill="#91D8F6"/>
<path opacity="0.2" d="M203.258 0H227V19.2367H203.258V0Z" fill="#91D8F6"/>
<path opacity="0.5" d="M153.728 26.8651H193.843V59.3685H153.728V26.8651Z" fill="#DFE1E2"/>
<path opacity="0.1" d="M175.423 11.9401H193.843V26.8651H175.423V11.9401Z" fill="#004186"/>
<path d="M64.8286 160.482C65.0118 160.679 64.875 161.204 64.875 161.204C64.875 161.204 61.6381 161.532 60.5986 161.318C60.3274 161.263 59.8727 161.058 59.4424 160.84C59.3699 160.803 59.2416 160.583 59.1734 160.548C59.043 160.48 58.9748 160.594 58.8645 160.532C58.5754 160.371 58.3746 160.246 58.3703 160.23C58.0923 158.916 58.4716 158.384 58.4716 158.384C58.4716 158.384 61.2297 157.563 61.744 158.129C62.953 159.458 64.4249 160.048 64.8286 160.482Z" fill="#163F59"/>
<path d="M81.8762 158.773L82.355 160.901H83.6172C83.6172 160.901 83.7583 160.599 83.9745 160.599C84.1577 160.599 84.3941 160.901 84.6412 160.901C85.1796 160.901 85.7751 160.901 86.0157 160.901C86.4945 160.901 91.1502 160.901 91.1502 160.901C91.1502 160.901 91.2673 160.453 91.1261 160.3C91.0532 160.221 90.6251 160.082 90.3406 160.014C89.0188 159.698 85.2367 158.716 84.5794 157.644C83.7784 156.34 81.8762 158.773 81.8762 158.773Z" fill="#163F59"/>
<path d="M64.2636 111.913L61.5651 110.7L61.2476 110.429L61.6204 109.944L62.2137 110.003L62.1103 108.583L64.9345 108.176L66.382 107.63L65.0448 111.48" fill="#E9D6B8"/>
<path d="M76.768 77.2724C76.768 77.2724 73.7452 79.964 83.0526 87.0722C92.3596 94.1807 94.0563 92.099 94.0563 92.099L96.8676 90.5863L98.9526 82.6772L94.46 81.8353L93.9726 82.3006C93.9726 82.3006 93.0061 82.3792 92.5205 81.8228C92.0352 81.266 88.9528 79.3951 84.5087 74.7768C82.4588 72.6489 77.3463 76.7514 76.768 77.2724Z" fill="#F2F2F2"/>
<path d="M98.2113 83.1303C98.2113 83.1303 107.598 82.993 108.348 75.0909C108.571 72.7432 109.315 75.014 109.826 77.2564C110.339 79.5001 108.624 85.8203 103.609 88.3603C98.5931 90.9003 96.4506 91.5246 94.5132 90.4882C92.5736 89.4537 98.2113 83.1303 98.2113 83.1303Z" fill="#91D8F6"/>
<path d="M84.3653 158.782C84.3653 158.782 82.9089 160.489 81.8367 158.892C79.3652 155.211 75.6937 146.113 75.5702 141.975C75.3913 136.039 76.638 131.911 76.638 131.911L84.4623 129.847L84.3653 158.782Z" fill="#163F59"/>
<path d="M84.105 102.645L84.4602 129.847L77.3464 133.022C77.3464 133.022 73.0768 126.533 72.5449 118.247C72.3179 114.73 72.2072 106.84 74.641 104.157C77.9376 100.522 84.105 102.645 84.105 102.645Z" fill="#163F59"/>
<path d="M81.5099 102.645L80.3472 112.061L77.1875 122.275L73.8224 131.82L61.8058 158.316L58.3085 158.546C58.3085 158.546 58.7495 138.656 63.0173 132.856C65.2744 129.786 65.2744 122.976 66.3181 115.639C66.5056 114.318 65.5789 111.334 65.7291 110.129C66.3181 105.376 69.3453 101.815 69.3453 101.817L81.5099 102.645Z" fill="#194866"/>
<path d="M84.2195 103.058L68.8094 102.782L62.2293 84.9693C62.2293 84.9693 57.9619 74.1989 66.1414 74.0598C74.3235 73.9224 83.7497 73.9224 83.7497 73.9224C83.7497 73.9224 90.5062 83.9685 84.2195 103.058Z" fill="#F2F2F2"/>
<path d="M56.5697 97.8552L66.3292 107.457C66.3292 107.457 65.9783 108.856 65.195 108.112C65.1001 108.023 65.5721 107.741 64.9787 107.479C62.5801 106.421 56.949 104.792 54.8661 103.164C52.1234 101.023 50.1727 98.5044 50.1727 98.5044L56.5697 97.8552Z" fill="#E9D6B8"/>
<path d="M75.8481 76.4249C75.8481 76.4249 83.0191 86.4195 80.9826 97.4806C80.8217 98.3511 79.5394 98.9753 79.5394 98.9753L77.7744 97.7303C77.7723 97.7286 77.9156 85.21 75.8481 76.4249Z" fill="#004186"/>
<path d="M75.592 76.1592L75.2016 78.3675L70.5172 74.7804V74.2274L75.592 76.1592Z" fill="#E0E0E0"/>
<path d="M77.0662 74.7341L77.8869 77.6076L75.8083 76.1592L77.0662 74.7341Z" fill="#E0E0E0"/>
<path d="M90.9626 84.4807L92.1853 82.695L92.7258 82.0029C93.2355 82.3597 93.9747 82.3006 93.9747 82.3006L92.7567 83.4924L91.6401 85.1102L91.009 87.5754L90.9626 84.4807Z" fill="#E0E0E0"/>
<path d="M62.9731 84.6536L57.6134 97.1329L56.4526 97.5056L57.0991 98.3351L50.4884 99.2643L47.5845 95.1868L55.3032 78.2499C55.3032 78.2499 58.2883 74.6913 64.9345 74.1008C69.7558 73.671 63.3592 83.6155 62.9731 84.6536Z" fill="#F2F2F2"/>
<path d="M50.0847 96.3692C50.0847 96.3692 54.5924 97.0525 56.9579 97.3415L56.4504 97.5056L57.0969 98.3351L54.8086 98.6418L51.4747 98.7026L50.9539 97.7053L51.9269 97.5091L50.0847 96.3692Z" fill="#BDBDBD"/>
<path d="M69.9369 71.559C70.1154 72.2438 70.4247 73.3034 70.7666 73.9224C71.2982 74.8892 75.9233 76.1307 76.6359 76.2698C77.3464 76.4072 76.457 73.3695 76.457 72.6792C76.457 72.153 76.0357 72.3151 76.5411 71.557H69.9369V71.559Z" fill="#91D8F6"/>
<path d="M77.8384 70.0213C77.9555 70.6135 77.4566 71.1699 76.7264 71.2645L70.7622 72.0369C70.0295 72.1315 69.341 71.7302 69.2242 71.1379L67.8076 63.9957C67.6905 63.4052 68.1869 62.847 68.9196 62.7524L74.8816 61.9783C75.6144 61.8837 76.3025 62.2851 76.4196 62.8773L77.8384 70.0213Z" fill="#91D8F6"/>
<path d="M77.2694 63.0938V63.0947C77.2568 63.1852 77.2112 63.3033 77.1426 63.4357C77.0751 63.5664 76.9896 63.7023 76.9045 63.8269C76.8808 63.8618 76.8571 63.8955 76.8341 63.9276C76.8186 63.8347 76.801 63.7323 76.7824 63.6278C76.75 63.4465 76.7148 63.2585 76.6818 63.1045C76.6653 63.0274 76.6491 62.9579 76.634 62.9014C76.62 62.8487 76.6035 62.7958 76.5848 62.76L76.5841 62.7582C76.5536 62.7018 76.4947 62.6593 76.4505 62.6311C76.4002 62.5993 76.3391 62.5679 76.2748 62.5382C76.1459 62.4786 75.9864 62.4177 75.8345 62.3642C75.6966 62.3153 75.5615 62.2708 75.4548 62.237C75.4943 62.1992 75.5425 62.1587 75.5981 62.1212C75.7666 62.0074 75.9889 61.9297 76.2712 62.0179C76.5834 62.1151 76.8431 62.3371 77.0237 62.5737C77.1128 62.6904 77.1789 62.806 77.2202 62.9035C77.2644 63.0068 77.2726 63.0717 77.2694 63.0938Z" fill="#004186" stroke="#004186"/>
<path d="M67.6442 62.3333C68.3363 62.1907 68.763 62.1517 69.0866 62.1221C69.1757 62.1139 69.2572 62.1063 69.3341 62.0976C69.5148 62.0772 69.6757 62.049 69.8463 61.985C70.0151 61.9215 70.1839 61.8261 70.3897 61.6814C70.6947 61.4664 71.0844 61.1465 71.4734 60.8267C71.5991 60.7237 71.7244 60.6204 71.8473 60.5209C72.1012 60.3145 72.3436 60.1227 72.5545 59.972C72.7711 59.8169 72.9352 59.7191 73.0358 59.6847C73.4424 59.5474 73.9829 59.4956 74.4509 59.6309C74.9056 59.7622 75.3165 60.0768 75.471 60.7182C75.6003 61.2586 75.8941 61.5778 76.1638 61.7676C76.2755 61.8462 76.3808 61.9009 76.4641 61.939C76.4343 61.9614 76.3969 61.987 76.3513 62.0161C76.2468 62.0828 76.1125 62.1602 75.9444 62.2568C75.879 62.2943 75.8083 62.3351 75.7325 62.379C74.9768 62.8176 74.3705 63.0952 73.7972 63.2518C73.2272 63.4075 72.6813 63.4462 72.0416 63.3961H72.0412C71.9399 63.388 71.8307 63.379 71.7158 63.3697C71.0908 63.3179 70.2938 63.2521 69.6049 63.2678C69.198 63.2771 68.8104 63.3149 68.5105 63.4087C68.2088 63.5029 67.9595 63.6677 67.9161 63.9415C67.8819 64.1566 67.8959 64.463 67.9308 64.7948C67.966 65.1292 68.0238 65.5011 68.0827 65.8515C68.1086 66.0063 68.1348 66.1562 68.1596 66.2973C68.1908 66.4778 68.2199 66.6439 68.2429 66.7874C68.2634 66.9149 68.2785 67.0208 68.2864 67.1003C68.2903 67.1401 68.2921 67.1707 68.2921 67.1931C68.2921 67.2045 68.2918 67.2111 68.2914 67.2141C68.2853 67.2266 68.2799 67.2292 68.2781 67.2301C68.2727 67.2327 68.2558 67.2382 68.2196 67.2376C68.156 67.2365 68.0694 67.2164 67.9764 67.1815C67.9667 67.164 67.9548 67.1419 67.9408 67.116C67.9013 67.0429 67.8453 66.9373 67.7778 66.8084C67.6427 66.5499 67.4628 66.1975 67.2832 65.8192C67.1032 65.4409 66.9247 65.0387 66.7918 64.6813C66.6568 64.3184 66.5756 64.0184 66.577 63.8362C66.5806 63.4136 66.5849 63.099 66.7171 62.8557C66.8389 62.6316 67.082 62.4492 67.6442 62.3333Z" fill="#004186" stroke="#004186"/>
<path d="M70.1398 69.1884C70.1775 69.3863 70.0119 69.5719 69.7691 69.6039L68.4804 69.7716C68.2379 69.8036 68.0084 69.67 67.9685 69.4718L67.5914 67.5685C67.5537 67.3724 67.7193 67.1853 67.9621 67.1547L69.2504 66.9871C69.4933 66.9551 69.7249 67.0907 69.7626 67.2868L70.1398 69.1884Z" fill="#91D8F6"/>
<path d="M77.823 68.191C77.8628 68.3875 77.6973 68.5746 77.4523 68.6049L76.1636 68.7728C75.9186 68.8048 75.6916 68.6709 75.6518 68.473L75.2743 66.5698C75.2347 66.3719 75.4003 66.1862 75.6453 66.1542L76.9337 65.9883C77.1786 65.956 77.4081 66.0899 77.4458 66.2878L77.823 68.191Z" fill="#91D8F6"/>
<path d="M68.9894 69.2204C69.095 69.3772 69.2081 69.5224 69.327 69.6525C69.734 70.0984 70.2508 70.4095 70.8108 70.3475C71.1509 70.3097 71.425 70.1848 71.6811 70.0259C71.8341 69.931 71.9925 69.8155 72.1559 69.6965C72.255 69.6243 72.3559 69.5507 72.4587 69.4794C73.0158 69.0938 73.7478 68.6843 75.0512 68.5149C75.8303 68.4131 76.4409 68.604 76.8604 68.8217C77.0705 68.9308 77.2318 69.0463 77.3399 69.1342C77.3941 69.1782 77.4344 69.2148 77.4609 69.2402C77.4742 69.253 77.4843 69.2626 77.4904 69.269L77.4968 69.2757L77.4979 69.2771H77.4983C77.4983 69.2771 77.4983 69.2771 77.4986 69.2768L77.819 69.1659V69.1657V69.1651L77.8183 69.1625L77.8165 69.1529L77.8086 69.1159L77.7813 68.9838C77.759 68.8746 77.7289 68.7291 77.6994 68.5839C77.694 68.5571 77.6887 68.5304 77.6833 68.5039C77.837 68.6791 78.0047 68.8953 78.1638 69.1211C78.3248 69.3493 78.4749 69.585 78.5909 69.7946C78.7084 70.0073 78.7841 70.1819 78.8064 70.2922C78.8107 70.3143 78.8154 70.3376 78.8204 70.3623C78.8937 70.7244 79.0162 71.3306 78.7651 71.9094C78.6329 72.2141 78.3966 72.5118 77.9871 72.7618C77.5759 73.0127 76.9818 73.2199 76.1266 73.331C73.1821 73.7132 71.555 73.4489 70.6499 73.013C69.7555 72.5822 69.5339 71.9679 69.4545 71.5663C69.3618 71.0972 69.1758 70.1595 69.0131 69.3394L68.9894 69.2204Z" fill="#004186"/>
<path d="M77.819 69.1659L77.4986 69.2768C77.4983 69.2771 77.4983 69.2771 77.4983 69.2771H77.4979L77.4968 69.2757L77.4904 69.269C77.4843 69.2626 77.4742 69.253 77.4609 69.2402C77.4344 69.2148 77.3941 69.1782 77.3399 69.1342C77.2318 69.0463 77.0705 68.9308 76.8604 68.8217C76.4409 68.604 75.8303 68.4131 75.0512 68.5149C73.7478 68.6843 73.0158 69.0938 72.4587 69.4794C72.3559 69.5507 72.255 69.6243 72.1559 69.6965C71.9925 69.8155 71.8341 69.931 71.6811 70.0259C71.425 70.1848 71.1509 70.3097 70.8108 70.3475C70.2508 70.4095 69.734 70.0984 69.327 69.6525C69.2081 69.5224 69.095 69.3772 68.9894 69.2204L69.0131 69.3394C69.1758 70.1595 69.3618 71.0972 69.4545 71.5663C69.5339 71.9679 69.7555 72.5822 70.6499 73.013C71.555 73.4489 73.1821 73.7132 76.1266 73.331C76.9818 73.2199 77.5759 73.0127 77.9871 72.7618C78.3966 72.5118 78.6329 72.2141 78.7651 71.9094C79.0162 71.3306 78.8937 70.7244 78.8204 70.3623C78.8154 70.3376 78.8107 70.3143 78.8064 70.2922C78.7841 70.1819 78.7084 70.0073 78.5909 69.7946C78.4749 69.585 78.3248 69.3493 78.1638 69.1211C78.0047 68.8953 77.837 68.6791 77.6833 68.5039C77.6887 68.5304 77.694 68.5571 77.6994 68.5839C77.7289 68.7291 77.759 68.8746 77.7813 68.9838L77.8086 69.1159L77.8165 69.1529L77.8183 69.1625L77.819 69.1651V69.1657V69.1659ZM77.819 69.1659L77.642 69.1901" stroke="#004186"/>
<path d="M74.2814 70.3603L76.1218 70.1211C76.3664 70.0891 76.532 69.9037 76.4925 69.7073L76.4505 69.4986L73.7275 69.8519L73.7696 70.0606C73.8069 70.2567 74.0364 70.3923 74.2814 70.3603Z" fill="#91D8F6"/>
<path d="M108.205 76.4197C108.205 76.4197 107.317 73.992 107.776 73.3855C108.236 72.7807 110.085 70.6598 110.085 70.6598L110.614 70.1569C110.614 70.1569 111.574 70.3565 110.314 71.7712C109.052 73.1838 110.1 72.788 110.1 72.788L111.801 71.8853L113.988 70.9202L114.895 70.385C114.895 70.385 115.382 70.048 115.579 70.0533C116.141 70.0713 115.919 70.4386 115.919 70.4386L112.596 72.779L116.336 71.3448C116.336 71.3448 116.85 71.2308 117.011 71.4287C117.161 71.6143 117.011 71.6839 117.011 71.6839L113.218 74.1721L115.243 73.6209C115.243 73.6209 115.751 73.5194 115.919 73.7065C116.102 73.9099 116.159 73.9617 116.159 73.9617L108.695 77.0209L108.205 76.4197Z" fill="#91D8F6"/>
<path d="M113.121 73.2679L115.82 72.3919C115.82 72.3919 116.397 72.1388 116.751 72.1655C117.154 72.1975 117.137 72.5043 117.137 72.5043L113.216 74.1721L113.121 73.2679Z" fill="#91D8F6"/>
<path d="M66.5961 159.408L68.443 167.515L74.8043 168.84L78.1892 168.926C78.1892 168.926 71.9909 166.771 70.7686 165.665C68.9153 163.988 69.4336 157.335 69.4336 157.335L66.5961 159.408Z" fill="#E9D6B8"/>
<path d="M68.3392 168.84L69.6743 168.926L70.3912 168.179L76.0335 169.527L79.6256 169.755C79.6256 169.755 79.3566 169.299 79.1379 169.153C78.4827 168.721 75.8812 167.931 75.8812 167.931C75.8812 167.931 75.9319 168.594 75.5217 168.678C75.1111 168.762 71.2123 167.89 70.2899 167.599C68.7013 167.099 68.3349 166.7 68.2379 166.769C67.9818 166.955 68.3392 168.84 68.3392 168.84Z" fill="#161711"/>
<path d="M63.485 107.263L66.7395 134.431L70.4401 160.426L65.5305 160.92C65.5305 160.92 59.4514 134.817 58.7783 132.562C58.1031 130.309 51.2496 112.293 53.7078 107.541C56.1682 102.789 63.485 107.263 63.485 107.263Z" fill="#163F59"/>
<path d="M48.8711 158.682L49.3829 167.308L55.7443 168.635L59.1292 168.717C59.1292 168.717 53.1054 166.695 52.1586 165.424C50.899 163.739 52.1586 158.054 52.1586 158.054L48.8711 158.682Z" fill="#E9D6B8"/>
<path d="M49.2816 168.633L50.6142 168.715L51.3314 167.97L56.435 169.133L60.771 169.297C60.771 169.297 60.7641 169.026 60.5921 168.905C59.9499 168.448 56.7683 167.679 56.7683 167.679C56.7683 167.679 56.8962 168.466 56.4881 168.551C56.0776 168.633 52.1521 167.679 51.2298 167.39C49.6411 166.889 49.2748 166.489 49.1778 166.559C48.9217 166.746 49.2816 168.633 49.2816 168.633Z" fill="#161711"/>
<path d="M48.1538 107.632L49.0783 131.394C49.0783 131.394 47.8582 137.838 47.7591 139.984C47.536 144.822 47.7921 159.335 47.7921 159.335L53.1054 159.51C53.1054 159.51 56.8499 133.275 57.3308 131.003C57.8142 128.729 63.249 110.454 60.109 105.907C56.9691 101.36 48.1538 107.632 48.1538 107.632Z" fill="#194866"/>
<path d="M55.2888 83.717C55.2888 87.0958 51.8274 89.8416 47.5471 89.8416C43.269 89.8416 39.8054 87.0958 39.8054 83.717C39.8054 80.3365 43.2668 77.5907 47.5471 77.5907C51.8274 77.5907 55.2888 80.3365 55.2888 83.717Z" fill="#004186" stroke="#004186"/>
<path d="M61.2893 70.9007C61.2893 73.4481 58.7341 75.5117 55.5834 75.5117L54.1578 73.3212C51.0071 73.3212 48.4541 71.2575 48.4541 68.7102V66.9818C48.4541 64.4345 51.0071 62.3706 54.1578 62.3706H55.5834C58.7341 62.3706 61.2893 64.4345 61.2893 66.9818V70.9007Z" fill="#002E60"/>
<path d="M58.5768 66.4353C57.6386 69.7338 54.9222 72.1711 51.9313 72.7953C49.9882 72.1024 48.6359 70.5341 48.6359 68.7085V66.9801C48.6359 64.5134 51.1081 62.5144 54.16 62.5144H55.5856C56.8197 62.5144 57.9536 62.8444 58.8749 63.3982C58.9647 64.3682 58.8731 65.3955 58.5768 66.4353Z" fill="#004186" stroke="#004186"/>
<path d="M55.1941 75.3781C55.1941 78.6105 51.8806 81.2367 47.7878 81.2367C43.695 81.2367 40.3812 78.6105 40.3812 75.3781C40.3812 72.1454 43.6928 69.5193 47.7878 69.5193C51.8806 69.5193 55.1941 72.1454 55.1941 75.3781Z" fill="#004186" stroke="#004186"/>
<path d="M56.7572 83.3835C56.7572 86.8013 53.2577 89.5715 48.9394 89.5715C44.6235 89.5715 41.124 86.8013 41.124 83.3835C41.124 79.9675 44.6235 77.1973 48.9394 77.1973C53.2577 77.1955 56.7572 79.9658 56.7572 83.3835Z" fill="#002E60"/>
<path d="M47.6596 71.9478C50.4795 70.4031 53.7563 70.337 54.9811 71.7962C56.2055 73.2571 54.9125 75.6936 52.0926 77.2366C49.2727 78.7813 45.9937 78.8491 44.7714 77.3882C43.5467 75.929 44.8397 73.4926 47.6596 71.9478Z" fill="#002E60"/>
<path d="M59.0077 64.1205C59.0034 64.5434 58.9571 64.9787 58.8709 65.4193C58.2951 68.3802 56.0686 70.6278 53.6348 70.9042C53.5597 72.2456 53.2268 73.4515 52.8274 74.4754C52.3727 75.6438 50.6802 76.878 50.6802 76.878C50.2679 78.9454 58.9725 81.9796 58.7675 81.6461C58.5599 81.3126 56.4152 78.8776 55.7134 76.6426C55.226 75.0874 55.8545 73.8028 56.5872 72.9164C57.9464 71.6213 59.9215 71.6411 59.9215 71.6411C60.1111 71.6411 60.281 71.575 60.4024 71.4714C60.5192 71.1664 60.5809 70.842 60.5809 70.5064V66.7036C60.5856 65.6527 59.9653 64.7165 59.0077 64.1205Z" fill="#91D8F6"/>
<path d="M60.8127 106.467L64.8973 107.315C64.8973 107.315 62.2361 97.9247 61.4923 94.2555C60.7488 90.5863 60.8328 89.3859 61.0799 88.2515C61.327 87.1188 61.9868 85.7845 61.0799 84.5162C60.173 83.2497 58.7564 81.1468 58.1914 80.9809C57.2823 80.7149 56.2939 80.3814 55.5525 79.7804C55.1442 79.4504 60.8127 106.467 60.8127 106.467Z" fill="#004186"/>
<path d="M62.236 107.22C62.236 107.22 60.2544 98.4136 59.3741 93.9665C58.4937 89.5197 56.0732 81.0699 55.8524 80.0033C55.634 78.9367 54.8617 77.5113 54.8617 77.5113C54.8617 77.5113 52.7721 76.2681 50.9011 76.5338C49.0298 76.8015 47.4896 80.18 46.7196 83.4708C45.9495 86.762 51.5609 95.9234 51.5609 96.7225C51.5609 97.5234 47.5999 104.282 47.5999 106.239C47.5999 108.196 47.5999 108.463 47.5999 108.463C47.5999 108.463 57.3947 104.641 62.236 107.22Z" fill="#E0E0E0"/>
<path d="M51.177 75.2442L52.7743 76.0486L55.0561 77.3117L54.6211 79.272L50.3538 76.179L51.177 75.2442Z" fill="#91D8F6"/>
<path d="M41.5277 96.8901C41.5277 96.8901 45.1044 100.745 46.9822 100.593C47.5713 100.545 47.5339 100.538 48.8115 100.336C50.0912 100.137 50.3384 100.147 51.3556 100.037C52.3774 99.9261 52.4963 99.9368 52.4963 99.9368C52.4963 99.9368 52.4963 100.404 52.1102 100.527C51.7639 100.636 50.9012 100.727 50.6121 100.827C50.3229 100.929 51.3401 100.761 52.867 100.861C54.3942 100.961 55.879 101.218 56.5123 101.362C56.9117 101.453 56.967 101.473 56.967 101.489C56.967 101.639 56.9537 101.778 56.7662 101.806C56.6028 101.829 56.0245 101.794 56.0579 101.817C56.1901 101.903 57.097 102.147 57.2536 102.181C57.4192 102.213 57.6465 102.252 57.7855 102.291C58.0657 102.37 57.9357 102.647 57.4479 102.757C57.4411 102.761 57.333 102.952 57.1854 102.991C57.1103 103.01 57.055 103.028 56.9803 103.046C56.8941 103.067 56.7903 103.067 56.7044 103.083C56.3754 103.144 56.0468 103.178 55.7289 103.196C55.5989 103.205 54.456 103.132 54.456 103.19C54.456 103.196 55.3539 103.355 55.3363 103.41C55.3008 103.533 55.1287 103.686 54.9721 103.676C54.6808 103.654 54.2419 103.629 53.0458 103.508C51.7262 103.374 51.4504 103.264 49.7583 103.431C48.2842 103.578 48.4275 103.824 47.3795 103.497C45.9762 103.062 40.8722 99.8621 39.9258 99.3606C38.9794 98.8595 41.5277 96.8901 41.5277 96.8901Z" fill="#91D8F6"/>
<path d="M39.6259 93.8559L51.0977 83.7831C51.0977 83.7831 52.4855 81.1307 52.4169 79.7804C52.3332 78.1804 49.9677 76.9781 49.9677 76.9781C49.9677 76.9781 44.7406 80.7809 38.5512 86.2518C32.3618 91.721 28.9792 94.1237 32.3618 96.2589C35.7444 98.3938 41.1086 101.129 41.1086 101.129L43.1717 96.8581L39.6259 93.8559Z" fill="#91D8F6"/>
<path d="M14.6213 175.134H125.614L148.167 106H37.1741L14.6213 175.134Z" fill="#91D8F6"/>
<path opacity="0.5" d="M14.6213 175.134H125.614L148.167 165.34H88.8048L14.6213 175.134Z" fill="#004186"/>
<path d="M171.177 175.134H60.1841L37.631 106H148.624L171.177 175.134Z" fill="#004186"/>
<path opacity="0.3" d="M64.3675 125.322H53.71L50.8549 116.567H61.5124L64.3675 125.322Z" fill="white"/>
<path opacity="0.3" d="M77.8319 125.322H67.1744L64.3168 116.567H74.9764L77.8319 125.322Z" fill="white"/>
<path d="M91.296 125.322H80.6385L77.7809 116.567H88.4384L91.296 125.322Z" fill="#91D8F6"/>
<path d="M104.76 125.322H94.1005L91.2454 116.567H101.905L104.76 125.322Z" fill="#91D8F6"/>
<path d="M118.225 125.322H107.565L104.709 116.567H115.367L118.225 125.322Z" fill="#91D8F6"/>
<path d="M131.689 125.322H121.029L118.172 116.567H128.832L131.689 125.322Z" fill="#91D8F6"/>
<path d="M145.153 125.322H134.493L131.636 116.567H142.296L145.153 125.322Z" fill="#C43B51"/>
<path d="M67.9089 136.176H57.2514L54.3942 127.421H65.0538L67.9089 136.176Z" fill="#91D8F6"/>
<path d="M81.3734 136.176H70.7134L67.8583 127.421H78.5158L81.3734 136.176Z" fill="#91D8F6"/>
<path d="M94.8375 136.176H84.1779L81.3224 127.421H91.9799L94.8375 136.176Z" fill="#91D8F6"/>
<path d="M108.302 136.176H97.642L94.7869 127.421H105.444L108.302 136.176Z" fill="#91D8F6"/>
<path d="M121.764 136.176H111.106L108.251 127.421H118.908L121.764 136.176Z" fill="#E9F6FF"/>
<path d="M135.228 136.176H124.568L121.713 127.421H132.373L135.228 136.176Z" fill="#91D8F6"/>
<path d="M148.692 136.176H138.035L135.177 127.421H145.837L148.692 136.176Z" fill="#C43B51"/>
<path d="M71.4504 147.03H60.7907L57.9331 138.275H68.5931L71.4504 147.03Z" fill="#E9F6FF"/>
<path d="M84.9124 147.03H74.2549L71.3998 138.275H82.0573L84.9124 147.03Z" fill="#91D8F6"/>
<path d="M98.379 147.03H87.7194L84.8639 138.275H95.5214L98.379 147.03Z" fill="#E9F6FF"/>
<path d="M111.841 147.03H101.183L98.3262 138.275H108.986L111.841 147.03Z" fill="#91D8F6"/>
<path d="M125.305 147.03H114.645L111.79 138.275H122.448L125.305 147.03Z" fill="#91D8F6"/>
<path d="M138.77 147.03H128.11L125.252 138.275H135.914L138.77 147.03Z" fill="#91D8F6"/>
<path d="M152.232 147.03H141.574L138.716 138.275H149.376L152.232 147.03Z" fill="#C43B51"/>
<path d="M74.9897 157.885H64.3322L61.4746 149.13H72.1346L74.9897 157.885Z" fill="#91D8F6"/>
<path d="M88.4538 157.885H77.7963L74.9391 149.13H85.5987L88.4538 157.885Z" fill="#91D8F6"/>
<path d="M101.918 157.885H91.2587L88.4032 149.13H99.0629L101.918 157.885Z" fill="#91D8F6"/>
<path d="M115.382 157.885H104.723L101.868 149.13H112.527L115.382 157.885Z" fill="#91D8F6"/>
<path d="M128.847 157.885H118.187L115.332 149.13H125.991L128.847 157.885Z" fill="#91D8F6"/>
<path d="M142.309 157.885H131.651L128.796 149.13H139.453L142.309 157.885Z" fill="#91D8F6"/>
<path d="M155.773 157.885H145.116L142.258 149.13H152.918L155.773 157.885Z" fill="#C43B51"/>
<path d="M78.5312 168.739H67.8716L65.0161 159.984H75.674L78.5312 168.739Z" fill="#91D8F6"/>
<path d="M91.9953 168.739H81.3357L78.4806 159.984H89.1402L91.9953 168.739Z" fill="#91D8F6"/>
<path d="M105.46 168.739H94.8002L91.9447 159.984H102.604L105.46 168.739Z" fill="#91D8F6"/>
<path d="M118.924 168.739H108.264L105.407 159.984H116.069L118.924 168.739Z" fill="#91D8F6"/>
<path opacity="0.3" d="M132.386 168.739H121.728L118.871 159.984H129.531L132.386 168.739Z" fill="white"/>
<path opacity="0.3" d="M145.85 168.739H135.193L132.335 159.984H142.995L145.85 168.739Z" fill="white"/>
<path opacity="0.3" d="M159.314 168.739H148.655L145.799 159.984H156.459L159.314 168.739Z" fill="white"/>
<path d="M111.005 129.194L118.377 133.969" stroke="#C43B51" stroke-width="2.5302"/>
<path d="M116.819 129.194L112.562 133.969" stroke="#C43B51" stroke-width="2.5302"/>
<path d="M92.7435 15.6966C92.7435 15.6966 99.9436 16.2995 106.029 16.7027C112.115 17.1058 118.077 17.8068 118.077 17.8068C118.077 17.8068 122.426 35.6801 125.429 44.1282C128.432 52.576 133.5 63.4052 133.5 63.4052L110.158 65.9149C110.158 65.9149 103.699 58.0827 98.6042 41.2171C93.5093 24.3479 92.7435 15.6966 92.7435 15.6966Z" fill="#203977"/>
<path d="M125.197 64.2759C124.976 63.7745 121.369 55.6672 120.409 53.5268C119.416 51.315 120.987 47.5029 118.754 45.2268C118.478 44.6311 118.28 44.0138 118.161 43.3844C117.914 42.1784 117.54 40.6089 117.54 40.6089L103.258 44.0051C103.258 44.0051 104.833 45.4107 104.749 46.4808C104.665 47.5512 105.826 50.5639 106.157 51.0312C106.707 51.6092 107.315 52.1479 107.979 52.6403C107.825 53.6749 108.487 54.6754 109.635 55.1501C111.126 55.8637 114.323 63.1572 115.312 65.339L125.197 64.2759Z" fill="#1A4684"/>
<path d="M95.8259 15.9464C96.7813 19.7672 98.7565 26.2458 100.027 29.1071C101.351 32.0537 103.09 41.8894 103.09 41.8894L114.943 36.5238C114.943 36.5238 113.703 32.4408 113.893 29.0267C114.034 26.0978 113.893 19.6869 113.052 17.2753C111.005 17.0808 108.542 16.8507 106.058 16.7027C102.452 16.453 98.4892 16.1586 95.8259 15.9464Z" fill="#1A4684"/>
<path d="M114.279 43.5537C117.677 44.0211 118.086 42.7476 117.757 40.6747C117.426 38.6037 117.757 38.1276 116.27 36.6594C114.782 35.1915 110.557 29.7651 109.727 27.086C109.05 24.8919 107.589 18.8717 107.101 16.774L106.051 16.7027L101.618 16.3923C102.669 19.2321 104.601 28.2793 104.449 32.3747C104.286 36.7898 101.881 42.0803 103.289 44.0194C104.696 45.9602 106.519 45.8924 108.255 44.7542C109.992 43.6163 110.888 43.0829 114.279 43.5537Z" fill="#537BB8"/>
<path d="M119.577 54.5276C118.831 52.6545 118.295 50.9492 118.957 49.9431C119.619 48.937 118.915 45.3589 117.907 45.2734C116.899 45.1878 116.084 45.409 114.593 45.3412C113.101 45.2734 112.276 44.5382 111.442 44.6739C110.608 44.8095 110.281 45.6086 108.873 46.3472C108.033 46.7538 107.128 47.0678 106.184 47.2817C105.731 47.3905 105.451 47.7546 105.533 48.1309C105.738 49.0048 106.236 50.4873 107.302 51.2169C108.878 52.287 110.864 51.8161 112.516 52.287C114.171 52.7579 115.043 54.6934 116.119 57.7756C116.934 60.107 118.22 63.4642 118.688 64.9036L124.028 64.365C123.075 62.301 120.197 56.0775 119.577 54.5276Z" fill="#537BB8"/>
<path d="M114.237 55.9332C113.827 54.5276 112.997 53.3859 112.007 53.0541C111.014 52.7224 109.27 52.8883 109.107 53.7249C108.944 54.5613 110.762 54.2939 111.424 55.4996C112.086 56.7056 114.674 64.6522 114.926 65.378L117.62 65.0893C117.231 63.9995 114.621 57.2067 114.237 55.9332Z" fill="#537BB8"/>
<path d="M117.24 19.76L111.475 19.1982L111.312 18.2902L117.079 18.8467L117.24 19.76Z" fill="#E8EEF4"/>
<path d="M117.488 20.9355L111.786 20.3826L111.702 19.9045L117.399 20.4557L117.488 20.9355Z" fill="#E8EEF4"/>
<path d="M166.806 36.9109L140.586 66.3023C137.986 69.2151 132.958 69.8752 129.354 67.7737C125.749 65.6725 124.937 61.6055 127.534 58.6927L153.754 29.3015L166.806 36.9109Z" fill="#91D8F6"/>
<path d="M130.389 66.6125C133.196 68.2484 137.123 67.7344 139.149 65.4656L152.757 50.2108L142.578 44.2781L128.971 59.5329C126.947 61.7999 127.582 64.9767 130.389 66.6125Z" fill="#004186"/>
<path d="M131.559 65.4621C129.961 63.7334 129.853 61.297 131.495 59.4578L144.067 45.3659" stroke="white" stroke-width="1.7121" stroke-miterlimit="10"/>
<path d="M155.458 25.8765L152.398 29.3068L167.21 37.9414L170.27 34.5111L155.458 25.8765Z" fill="#91D8F6"/>
<path d="M152.727 28.9411L152.4 29.3085L167.211 37.9431L167.539 37.5758L152.727 28.9411Z" fill="#5DB3D8"/>
<path d="M159.479 36.5581L159.233 36.8329L162.107 38.5089L162.353 38.2341L159.479 36.5581Z" fill="white"/>
<path d="M157.052 39.2574L156.808 39.5307L159.683 41.2064L159.926 40.9328L157.052 39.2574Z" fill="white"/>
<path d="M154.65 41.9732L154.406 42.2464L157.281 43.9224L157.524 43.6489L154.65 41.9732Z" fill="white"/>
<path d="M152.212 44.6826L151.968 44.9561L154.842 46.6318L155.086 46.3583L152.212 44.6826Z" fill="white"/>
<path d="M149.798 47.3932L149.554 47.6667L152.429 49.3418L152.673 49.0686L149.798 47.3932Z" fill="white"/>
<path d="M147.383 50.1169L147.139 50.3901L150.013 52.0661L150.257 51.7926L147.383 50.1169Z" fill="white"/>
<path d="M144.963 52.8303L144.719 53.1039L147.593 54.7796L147.837 54.5063L144.963 52.8303Z" fill="white"/>
<path d="M142.546 55.5392L142.302 55.8127L145.176 57.4884L145.42 57.2149L142.546 55.5392Z" fill="white"/>
<path d="M140.132 58.2462L139.888 58.5195L142.762 60.1958L143.006 59.9222L140.132 58.2462Z" fill="white"/>
<path d="M137.709 60.9603L137.465 61.2336L140.34 62.909L140.584 62.6354L137.709 60.9603Z" fill="white"/>
<path d="M144.176 45.2073L155.839 32.1358" stroke="white" stroke-width="1.7121" stroke-miterlimit="10"/>
<path d="M156.042 30.7837L158.332 28.2169" stroke="white" stroke-width="1.7121" stroke-miterlimit="10"/>
<path d="M156.638 83.7296L144.637 74.8554C144.637 74.8554 143.838 75.6348 144.14 76.3484C144.963 78.2784 147.911 82.1528 149.782 83.7866C152.337 86.0216 155.42 87.8126 155.42 87.8126L156.638 83.7296Z" fill="#91D8F6"/>
<path d="M144.621 77.2491L143.106 76.2075C143.106 76.2075 142.357 75.7401 141.731 74.9622C141.106 74.1829 141.462 73.4265 142.271 72.804C143.081 72.1815 143.69 72.112 143.69 72.112C143.69 72.112 144.994 72.5791 144.829 73.5228C144.661 74.4646 145.839 76.548 145.394 76.6979C144.946 76.8478 144.621 77.2491 144.621 77.2491Z" fill="#91D8F6"/>
<path d="M144.248 72.2974L142.741 70.9828L141.269 69.8126L141.082 70.1569L141.982 71.1042L142.463 73.0875L143.059 72.8235L144.248 72.2974Z" fill="#91D8F6"/>
<path d="M141.464 71.591L139.844 70.906L139.549 71.1932L140.996 72.1047L142.046 73.4373L143.059 72.8235L141.464 71.591Z" fill="#91D8F6"/>
<path d="M139.244 71.7889L140.577 72.2671L141.517 72.4883L142.163 73.1858L141.561 73.8796L140.892 73.1108L139.268 72.2368L139.244 71.7889Z" fill="#91D8F6"/>
<path d="M138.948 72.9466L141.499 73.4745L141.918 73.9955L141.537 74.4896L140.504 73.9117L139.129 73.2857L138.948 72.9466Z" fill="#91D8F6"/>
<path d="M146.148 77.2241C145.321 76.5463 145.504 75.5385 145.504 75.5385C145.504 75.5385 145.877 73.0179 145.422 72.6023C144.965 72.1868 144.679 71.1112 144.679 71.1112C144.679 71.1112 144.288 70.7098 144.12 71.7284C144.012 72.3937 144.169 72.9894 144.169 72.9894C144.169 72.9894 143.326 74.363 143.392 74.8089C143.52 75.7276 145.565 77.3419 145.565 77.3419C145.565 77.3419 146.252 77.3099 146.148 77.2241Z" fill="#91D8F6"/>
<path d="M171.002 81.2038L157.655 83.1978L157.143 83.9007L156.367 83.387L154.676 87.5236L158.52 89.8585L176.686 86.8691C176.686 86.8691 180.656 85.3633 182.004 81.1662C182.982 78.1233 172.108 81.0754 171.002 81.2038Z" fill="#F2F2F2"/>
<path d="M157.591 88.1176C157.591 88.1176 157.399 85.1442 157.366 83.5922L157.143 83.9007L156.367 83.387L155.797 84.8229L155.362 86.9547L156.325 87.404L156.634 86.803L157.591 88.1176Z" fill="#E0E0E0"/>
<path d="M174.932 81.5675C174.932 81.5675 171.517 85.0816 170.431 89.8497C169.346 94.6175 169.189 107.291 167.481 115.197C165.773 123.103 163.291 132.262 168.412 131.133C173.534 130.004 181.451 130.505 180.985 122.726C180.519 114.945 178.657 82.9481 177.726 81.6924C176.797 80.4384 176.329 80.4384 174.932 81.5675Z" fill="#E0E0E0"/>
<path d="M177.435 78.2694C177.399 79.6413 178.149 80.8988 179.094 81.0361C179.996 81.1127 180.899 81.1895 181.804 81.2681C182.766 81.2911 183.825 80.1887 184.142 78.8404C184.657 76.6141 185.171 74.388 185.689 72.1617C186.011 70.8277 185.713 68.07 184.374 67.1477C183.15 66.327 181.636 66.1969 180.226 66.7944C178.681 67.4705 177.677 70.1176 177.649 71.4752C177.576 73.7405 177.505 76.0058 177.435 78.2694Z" fill="#74C7EA"/>
<path d="M169.815 98.3441L154.773 98.7026C154.773 98.7026 165.919 104.127 169.968 101.393C174.019 98.6561 169.815 98.3441 169.815 98.3441Z" fill="#91D8F6"/>
<path d="M176.795 170.856L176.825 172.09L185.316 171.944L185.429 168.623L180.305 168.573C180.305 168.575 177.598 170.667 176.795 170.856Z" fill="#161711"/>
<path d="M183.061 112.527C183.061 112.527 179.2 132.946 174.849 141.952C170.996 149.932 165.99 139.724 165.99 139.724L172.507 105.465L184.707 104.505C184.705 104.503 185.55 104.741 183.061 112.527Z" fill="#163F59"/>
<path d="M175.06 106.3L173.902 119.442L176.047 120.413C176.047 120.413 177.783 139.875 178.211 140.855C180.65 146.456 186.49 142.97 187.249 141.076C188.008 139.183 188.99 125.247 188.456 115.101C187.92 104.953 187.92 104.953 187.92 104.953L175.06 106.3Z" fill="#194866"/>
<path d="M178.589 135.618C178.589 135.618 177.699 139.103 178.013 145.664C178.213 149.822 179.003 160.828 180.164 169.01C180.237 169.511 185.29 169.044 185.29 169.044C185.29 169.044 187.675 142.38 187.812 137.223C187.851 135.668 182.536 131.875 178.589 135.618Z" fill="#194866"/>
<path d="M176.954 79.1524L184.899 77.7165L188.975 81.4232C188.975 81.4232 191.998 84.6998 192.064 92.058C192.13 99.4357 189.039 113.101 189.039 113.101L170.852 108.376C170.85 108.376 171.7 82.4773 176.954 79.1524Z" fill="#C43B51"/>
<path d="M177.726 78.9187L179.087 82.0224L186.247 78.9938L185.497 77.2741L177.726 78.9187Z" fill="#E8936F"/>
<path d="M177.357 78.1463L177.523 78.8384L175.916 80.7274L175.958 79.1791L177.357 78.1463Z" fill="#E8936F"/>
<path d="M168.022 139.228C168.022 139.228 169.449 139.577 173.966 139.629C178.465 139.683 168.942 169.113 168.942 169.113L162.503 167.324L166.329 137.797L168.022 139.228Z" fill="#163F59"/>
<path d="M168.437 168.801L167.898 171.375L164.663 171.43C164.663 171.43 162.238 171.471 161.632 171.482C161.025 171.493 157.386 171.555 157.386 171.555L157.362 170.613C157.362 170.613 162.379 169.113 163.348 167.528C164.317 165.942 168.437 168.801 168.437 168.801Z" fill="#161711"/>
<path d="M179.972 65.2601L179.789 63.7011L178.992 63.7637L176.892 63.9258L175.623 64.0242C174.222 64.1327 173.196 65.1388 173.328 66.2717L173.513 67.8287L174.31 67.7664L176.411 67.604L177.677 67.506C179.083 67.3989 180.107 66.3928 179.972 65.2601Z" fill="#163F59"/>
<path d="M185.083 74.4166C185.201 75.4226 184.288 76.3163 183.044 76.4127L177.927 76.8067C176.68 76.903 175.574 76.1665 175.455 75.1587L174.478 66.8838C174.359 65.8759 175.272 64.9805 176.519 64.8841L181.638 64.4881C182.883 64.3917 183.99 65.1301 184.109 66.1382L185.083 74.4166Z" fill="#91D8F6"/>
<path d="M179.952 63.6889C180.839 63.6211 181.662 63.9316 182.183 64.454L183.055 64.3865C184.138 64.3044 185.105 64.9464 185.208 65.8242L185.672 69.7483L184.288 69.8554L184.101 68.2588C184.03 67.6419 183.348 67.1905 182.587 67.2493L181.779 67.3119L179.679 67.474L178.412 67.5723C177.009 67.6809 175.766 66.8497 175.634 65.7171L175.438 64.0402L179.952 63.6889Z" fill="#163F59"/>
<path d="M183.97 70.9095C183.906 70.3728 184.394 69.8964 185.058 69.8446L185.157 69.8376C185.824 69.7858 186.413 70.1781 186.477 70.7151L186.616 71.896C186.68 72.4347 186.192 72.9111 185.528 72.9644L185.429 72.9716C184.937 73.0092 184.487 72.804 184.259 72.4757" fill="#91D8F6"/>
<path d="M156.462 98.8685C156.462 98.8685 156.753 96.7565 156.263 96.3104C155.773 95.8646 153.86 94.3341 153.86 94.3341L153.331 93.9808C153.331 93.9808 152.571 94.261 153.873 95.2776C155.175 96.2961 154.235 96.091 154.235 96.091L152.664 95.5488L150.683 95.0119L149.835 94.6766C149.835 94.6766 149.37 94.4572 149.211 94.4857C148.747 94.5678 149.001 94.8442 149.001 94.8442L152.174 96.3817L148.825 95.6416C148.825 95.6416 148.379 95.6076 148.282 95.7915C148.189 95.9644 148.328 96.0002 148.328 96.0002L151.914 97.6037L150.14 97.3895C150.14 97.3895 149.703 97.3665 149.597 97.5394C149.482 97.7303 149.445 97.7786 149.445 97.7786L156.168 99.4179L156.462 98.8685Z" fill="#91D8F6"/>
<path d="M151.826 96.8473L149.436 96.4443C149.436 96.4443 148.913 96.3052 148.626 96.3695C148.297 96.4443 148.37 96.6957 148.37 96.6957L151.911 97.6072L151.826 96.8473Z" fill="#91D8F6"/>
<path d="M185.497 77.2741C185.497 77.2741 180.319 80.7847 178.503 83.8259C176.687 86.8673 176.64 102.648 179.745 108.171C182.849 113.693 185.643 127.746 185.643 130.759C185.643 133.77 196.199 128.75 196.199 128.75C196.199 128.75 194.025 114.947 193.714 109.676C193.403 104.405 191.852 88.3443 191.541 84.0773C191.232 79.8106 185.497 77.2741 185.497 77.2741Z" fill="#F2F2F2"/>
<path d="M185.023 76.9246C185.023 76.9246 178.886 82.4595 177.728 84.7054C175.411 89.1932 176.02 100.14 177.883 104.155C179.745 108.171 180.056 108.924 180.056 108.924L179.901 89.4735L180.678 85.4579L179.282 84.8302L180.678 84.2022L186.111 77.6772L185.023 76.9246Z" fill="#E0E0E0"/>
<path d="M186.744 80.8932C186.744 80.8932 190.254 82.3542 188.571 86.5711C185.7 93.7613 179.707 99.6854 178.58 100.87C177.452 102.056 173.511 104.928 170.883 103.979C168.253 103.03 168.253 103.03 168.253 103.03L168.074 98.2352L169.818 98.0923L170.85 97.9355C170.85 97.9355 174.491 93.2637 177.534 88.715C180.577 84.1684 186.744 80.8932 186.744 80.8932Z" fill="#F2F2F2"/>
<path d="M182.229 90.1012C179.745 93.6153 174.778 100.768 173.07 101.145C171.916 101.4 169.562 100.795 168.154 100.376L168.253 103.032C168.253 103.032 168.253 103.032 170.883 103.981C173.513 104.931 177.452 102.058 178.58 100.872C179.504 99.9013 183.69 95.7505 186.753 90.3296C187.214 86.9314 184.524 86.8528 182.229 90.1012Z" fill="#E0E0E0"/>
<path d="M186.574 118.963L192.009 117.206L192.317 119.088L187.042 120.971L186.574 118.963Z" fill="#E0E0E0"/>
</g>
<defs>
<clipPath id="clip0_34_38">
<rect width="227" height="188" fill="white"/>
</clipPath>
</defs>
</svg>
