<?xml version="1.0" encoding="UTF-8"?>
<!DOCTYPE svg PUBLIC "-//W3C//DTD SVG 1.1//EN" "http://www.w3.org/Graphics/SVG/1.1/DTD/svg11.dtd">
<svg xmlns="http://www.w3.org/2000/svg" version="1.1" width="341px" height="341px" style="shape-rendering:geometricPrecision; text-rendering:geometricPrecision; image-rendering:optimizeQuality; fill-rule:evenodd; clip-rule:evenodd" xmlns:xlink="http://www.w3.org/1999/xlink">
<g><path style="opacity:1" fill="#25b1d7" d="M 208.5,24.5 C 208.631,25.2389 208.464,25.9056 208,26.5C 202.267,24.9413 196.433,24.108 190.5,24C 194.2,26.3201 197.867,28.4867 201.5,30.5C 201.043,31.2975 200.376,31.6309 199.5,31.5C 194.906,30.185 190.239,29.185 185.5,28.5C 184.833,28.5 184.167,28.5 183.5,28.5C 168.351,25.2238 153.351,26.2238 138.5,31.5C 138.712,29.6159 139.712,28.2826 141.5,27.5C 141.306,25.9299 141.306,24.4299 141.5,23C 143.584,22.3028 145.251,21.1361 146.5,19.5C 167.644,14.2247 188.311,15.8914 208.5,24.5 Z"/></g>
<g><path style="opacity:1" fill="#022234" d="M 183.5,28.5 C 184.167,28.5 184.833,28.5 185.5,28.5C 186.122,30.335 187.456,31.5017 189.5,32C 197.5,32.6767 204.5,35.51 210.5,40.5C 211.074,42.0589 211.74,43.5589 212.5,45C 214.207,45.1953 215.874,45.1953 217.5,45C 218.517,46.0495 218.684,47.2161 218,48.5C 216.467,48.9437 214.967,49.277 213.5,49.5C 215.586,53.2564 218.586,55.923 222.5,57.5C 222.5,59.5 222.5,61.5 222.5,63.5C 223.978,63.238 225.311,63.5713 226.5,64.5C 225.717,69.4473 225.217,74.4473 225,79.5C 224.147,77.8753 223.147,77.5419 222,78.5C 220.882,76.2346 220.049,73.9013 219.5,71.5C 217.549,71.2267 216.049,71.8934 215,73.5C 213.937,72.5622 212.77,71.5622 211.5,70.5C 210.831,72.6309 210.165,74.6309 209.5,76.5C 209.768,74.901 209.434,73.5676 208.5,72.5C 204.803,66.9695 199.803,63.1361 193.5,61C 185.841,60.5003 178.174,60.3336 170.5,60.5C 170.793,56.5633 170.46,52.73 169.5,49C 173.859,48.641 176.192,46.3077 176.5,42C 175.454,39.1142 173.787,36.6142 171.5,34.5C 171.33,33.1779 171.663,32.0113 172.5,31C 171.692,30.6924 171.025,30.1924 170.5,29.5C 174.783,28.5078 179.116,28.1744 183.5,28.5 Z"/></g>
<g><path style="opacity:1" fill="#022438" d="M 183.5,28.5 C 179.116,28.1744 174.783,28.5078 170.5,29.5C 171.025,30.1924 171.692,30.6924 172.5,31C 171.663,32.0113 171.33,33.1779 171.5,34.5C 163.836,33.6662 160.336,36.9995 161,44.5C 165.876,48.5992 167.709,53.9325 166.5,60.5C 157.827,60.3336 149.16,60.5002 140.5,61C 136.724,62.9474 133.39,65.4474 130.5,68.5C 130.668,63.6748 128.668,62.0081 124.5,63.5C 125.342,60.846 125.842,58.1794 126,55.5C 124.723,57.7311 122.889,59.3978 120.5,60.5C 118.926,61.6309 117.259,61.7975 115.5,61C 120.944,60.0638 123.61,56.8971 123.5,51.5C 121.481,43.5799 119.648,43.9132 118,52.5C 112.643,56.5314 107.31,60.5314 102,64.5C 100.957,72.5775 97.7903,79.5775 92.5,85.5C 96.519,67.3117 106.186,52.8117 121.5,42C 126.896,37.9734 132.562,34.4734 138.5,31.5C 153.351,26.2238 168.351,25.2238 183.5,28.5 Z"/></g>
<g><path style="opacity:1" fill="#f2f9fa" d="M 171.5,34.5 C 173.787,36.6142 175.454,39.1142 176.5,42C 176.192,46.3077 173.859,48.641 169.5,49C 170.46,52.73 170.793,56.5633 170.5,60.5C 178.174,60.3336 185.841,60.5003 193.5,61C 199.803,63.1361 204.803,66.9695 208.5,72.5C 209.206,84.4869 209.539,96.4869 209.5,108.5C 206.757,118.359 200.424,124.359 190.5,126.5C 193.904,125.287 196.404,123.621 198,121.5C 199.766,119.404 201.099,117.071 202,114.5C 202.333,115.167 202.667,115.833 203,116.5C 203.684,115.216 203.517,114.049 202.5,113C 203.715,110.904 204.549,111.071 205,113.5C 205.834,110.828 206.668,108.161 207.5,105.5C 206.137,104.107 205.304,102.441 205,100.5C 203.018,102.358 201.852,104.691 201.5,107.5C 198.749,108.016 196.416,109.183 194.5,111C 182.659,111.826 170.993,111.659 159.5,110.5C 170.578,110.931 181.578,110.431 192.5,109C 200.178,104.849 203.178,98.3486 201.5,89.5C 201.803,80.9723 197.803,75.8056 189.5,74C 175.5,73.3333 161.5,73.3333 147.5,74C 142.582,74.7639 138.916,77.2639 136.5,81.5C 136.33,80.1779 136.663,79.0113 137.5,78C 131.753,76.0823 129.42,78.0823 130.5,84C 129.04,84.8036 128.206,86.637 128,89.5C 127.833,92 127.667,94.5 127.5,97C 127.484,101.971 128.151,106.804 129.5,111.5C 128.262,109.786 127.595,107.786 127.5,105.5C 124.15,105.665 120.817,105.498 117.5,105C 115.513,103.681 114.346,101.848 114,99.5C 113.333,94.8333 113.333,90.1667 114,85.5C 117.066,81.3839 120.566,80.7173 124.5,83.5C 124.161,88.9302 124.661,94.2636 126,99.5C 126.499,94.8452 126.666,90.1785 126.5,85.5C 127.208,81.2153 127.708,76.882 128,72.5C 128.662,71.0161 129.496,69.6828 130.5,68.5C 133.39,65.4474 136.724,62.9474 140.5,61C 149.16,60.5002 157.827,60.3336 166.5,60.5C 167.709,53.9325 165.876,48.5992 161,44.5C 160.336,36.9995 163.836,33.6662 171.5,34.5 Z"/></g>
<g><path style="opacity:0.578" fill="#1287a5" d="M 114.5,36.5 C 110.592,41.2502 106.425,45.9168 102,50.5C 82.5581,79.1745 78.2248,108.841 89,139.5C 89.6368,141.303 90.8035,142.636 92.5,143.5C 92.6321,148.393 94.9654,152.393 99.5,155.5C 100.843,158.85 102.177,162.183 103.5,165.5C 83.106,140.867 76.9393,112.867 85,81.5C 89.8465,63.1168 99.6798,48.1168 114.5,36.5 Z"/></g>
<g><path style="opacity:1" fill="#f8fbfb" d="M 136.5,81.5 C 135.421,87.4492 135.254,93.4492 136,99.5C 136.278,100.416 136.778,101.082 137.5,101.5C 139.321,105.485 142.321,108.319 146.5,110C 150.821,110.499 155.154,110.666 159.5,110.5C 170.993,111.659 182.659,111.826 194.5,111C 196.416,109.183 198.749,108.016 201.5,107.5C 201.852,104.691 203.018,102.358 205,100.5C 205.304,102.441 206.137,104.107 207.5,105.5C 206.668,108.161 205.834,110.828 205,113.5C 204.549,111.071 203.715,110.904 202.5,113C 203.517,114.049 203.684,115.216 203,116.5C 202.667,115.833 202.333,115.167 202,114.5C 201.099,117.071 199.766,119.404 198,121.5C 196.404,123.621 193.904,125.287 190.5,126.5C 175.153,126.597 159.82,126.763 144.5,127C 137.258,123.926 132.258,118.759 129.5,111.5C 128.151,106.804 127.484,101.971 127.5,97C 127.667,94.5 127.833,92 128,89.5C 128.206,86.637 129.04,84.8036 130.5,84C 129.42,78.0823 131.753,76.0823 137.5,78C 136.663,79.0113 136.33,80.1779 136.5,81.5 Z"/></g>
<g><path style="opacity:1" fill="#092633" d="M 201.5,89.5 C 199.547,88.0012 197.88,88.3345 196.5,90.5C 195.692,88.5767 195.192,86.5767 195,84.5C 193.301,83.5939 191.467,83.2606 189.5,83.5C 189.286,81.8561 189.62,80.3561 190.5,79C 188.167,78.3333 185.833,78.3333 183.5,79C 184.654,79.9138 184.487,80.7471 183,81.5C 182.682,79.9391 181.849,78.7724 180.5,78C 167.128,75.7926 154.128,76.4593 141.5,80C 141.5,81.6667 141.5,83.3333 141.5,85C 140.584,85.3742 139.75,85.8742 139,86.5C 138.853,89.1104 138.019,91.4437 136.5,93.5C 136.977,94.4776 137.643,95.3109 138.5,96C 135.972,97.0174 135.972,98.1841 138.5,99.5C 138.137,100.183 137.804,100.85 137.5,101.5C 136.778,101.082 136.278,100.416 136,99.5C 135.254,93.4492 135.421,87.4492 136.5,81.5C 138.916,77.2639 142.582,74.7639 147.5,74C 161.5,73.3333 175.5,73.3333 189.5,74C 197.803,75.8056 201.803,80.9723 201.5,89.5 Z"/></g>
<g><path style="opacity:1" fill="#e4eef0" d="M 218.5,105.5 C 216.265,105.795 214.265,105.461 212.5,104.5C 212.236,97.1104 212.57,89.7771 213.5,82.5C 214.314,80.7274 215.648,80.2274 217.5,81C 219,82.5 220.5,84 222,85.5C 222.667,90.5 222.667,95.5 222,100.5C 220.824,102.196 219.657,103.862 218.5,105.5 Z"/></g>
<g><path style="opacity:1" fill="#01253a" d="M 185.5,28.5 C 190.239,29.185 194.906,30.185 199.5,31.5C 237.197,50.5544 253.031,81.2211 247,123.5C 243.581,143.029 234.081,158.696 218.5,170.5C 218.962,168.243 219.962,166.243 221.5,164.5C 219.698,163.725 219.031,162.725 219.5,161.5C 221.843,158.16 224.176,154.827 226.5,151.5C 225.568,149.235 224.235,147.235 222.5,145.5C 225.33,143.931 227.33,141.597 228.5,138.5C 231.167,139.833 231.833,139.167 230.5,136.5C 231.098,135.205 231.598,133.872 232,132.5C 232.359,135.544 233.026,135.878 234,133.5C 234.655,128.762 235.155,123.929 235.5,119C 234.88,116.527 234.214,114.027 233.5,111.5C 232.749,112.376 232.249,113.376 232,114.5C 230.864,110.757 229.53,107.09 228,103.5C 225.613,105.355 223.946,107.688 223,110.5C 222.388,107.885 220.888,106.219 218.5,105.5C 219.657,103.862 220.824,102.196 222,100.5C 222.667,95.5 222.667,90.5 222,85.5C 220.5,84 219,82.5 217.5,81C 215.648,80.2274 214.314,80.7274 213.5,82.5C 212.5,83.1667 211.5,83.8333 210.5,84.5C 209.735,81.9039 209.401,79.2372 209.5,76.5C 210.165,74.6309 210.831,72.6309 211.5,70.5C 212.77,71.5622 213.937,72.5622 215,73.5C 216.049,71.8934 217.549,71.2267 219.5,71.5C 220.049,73.9013 220.882,76.2346 222,78.5C 223.147,77.5419 224.147,77.8753 225,79.5C 225.217,74.4473 225.717,69.4473 226.5,64.5C 225.311,63.5713 223.978,63.238 222.5,63.5C 222.5,61.5 222.5,59.5 222.5,57.5C 218.586,55.923 215.586,53.2564 213.5,49.5C 214.967,49.277 216.467,48.9437 218,48.5C 218.684,47.2161 218.517,46.0495 217.5,45C 215.874,45.1953 214.207,45.1953 212.5,45C 211.74,43.5589 211.074,42.0589 210.5,40.5C 204.5,35.51 197.5,32.6767 189.5,32C 187.456,31.5017 186.122,30.335 185.5,28.5 Z"/></g>
<g><path style="opacity:1" fill="#23616e" d="M 213.5,82.5 C 212.57,89.7771 212.236,97.1104 212.5,104.5C 211.833,104.167 211.167,103.833 210.5,103.5C 210.5,97.1667 210.5,90.8333 210.5,84.5C 211.5,83.8333 212.5,83.1667 213.5,82.5 Z"/></g>
<g><path style="opacity:1" fill="#94a6aa" d="M 124.5,83.5 C 125.167,84.1667 125.833,84.8333 126.5,85.5C 126.666,90.1785 126.499,94.8452 126,99.5C 124.661,94.2636 124.161,88.9302 124.5,83.5 Z"/></g>
<g><path style="opacity:1" fill="#021e30" d="M 130.5,68.5 C 129.496,69.6828 128.662,71.0161 128,72.5C 127.708,76.882 127.208,81.2153 126.5,85.5C 125.833,84.8333 125.167,84.1667 124.5,83.5C 120.566,80.7173 117.066,81.3839 114,85.5C 113.333,90.1667 113.333,94.8333 114,99.5C 114.346,101.848 115.513,103.681 117.5,105C 120.817,105.498 124.15,105.665 127.5,105.5C 127.595,107.786 128.262,109.786 129.5,111.5C 132.258,118.759 137.258,123.926 144.5,127C 159.82,126.763 175.153,126.597 190.5,126.5C 200.424,124.359 206.757,118.359 209.5,108.5C 210.451,107.081 210.784,105.415 210.5,103.5C 211.167,103.833 211.833,104.167 212.5,104.5C 214.265,105.461 216.265,105.795 218.5,105.5C 220.888,106.219 222.388,107.885 223,110.5C 223.946,107.688 225.613,105.355 228,103.5C 229.53,107.09 230.864,110.757 232,114.5C 232.249,113.376 232.749,112.376 233.5,111.5C 234.214,114.027 234.88,116.527 235.5,119C 235.155,123.929 234.655,128.762 234,133.5C 233.026,135.878 232.359,135.544 232,132.5C 231.598,133.872 231.098,135.205 230.5,136.5C 231.833,139.167 231.167,139.833 228.5,138.5C 227.33,141.597 225.33,143.931 222.5,145.5C 220.989,144.498 219.322,143.831 217.5,143.5C 217.844,149.678 218.511,155.678 219.5,161.5C 219.031,162.725 219.698,163.725 221.5,164.5C 219.962,166.243 218.962,168.243 218.5,170.5C 217.109,172.89 215.109,174.557 212.5,175.5C 211.275,174.848 210.608,173.681 210.5,172C 209.975,165.335 209.308,158.835 208.5,152.5C 208.665,148.421 207.331,145.088 204.5,142.5C 201.578,140.469 198.245,139.302 194.5,139C 175.135,137.186 155.802,137.186 136.5,139C 133.063,140.105 130.563,142.272 129,145.5C 128.333,152.167 128.333,158.833 129,165.5C 130.741,166.758 132.574,167.758 134.5,168.5C 136.5,169.833 138.5,171.167 140.5,172.5C 136.144,172.159 132.144,170.826 128.5,168.5C 126.865,169.046 125.199,169.38 123.5,169.5C 123.714,167.856 123.38,166.356 122.5,165C 123.549,164.508 124.549,164.674 125.5,165.5C 125.833,164.333 126.167,163.167 126.5,162C 125.901,157.511 125.401,153.011 125,148.5C 123.89,153.479 122.89,153.146 122,147.5C 122.384,151.4 122.217,155.4 121.5,159.5C 120.5,159.5 119.5,159.5 118.5,159.5C 118.5,160.5 118.5,161.5 118.5,162.5C 115.777,161.648 113.11,160.481 110.5,159C 110.059,156.059 108.393,154.226 105.5,153.5C 103.325,149.18 100.992,145.014 98.5,141C 98.8333,140.667 99.1667,140.333 99.5,140C 98.2642,138.612 96.9308,137.446 95.5,136.5C 88.7052,119.862 87.7052,102.862 92.5,85.5C 97.7903,79.5775 100.957,72.5775 102,64.5C 107.31,60.5314 112.643,56.5314 118,52.5C 119.648,43.9132 121.481,43.5799 123.5,51.5C 123.61,56.8971 120.944,60.0638 115.5,61C 117.259,61.7975 118.926,61.6309 120.5,60.5C 122.889,59.3978 124.723,57.7311 126,55.5C 125.842,58.1794 125.342,60.846 124.5,63.5C 128.668,62.0081 130.668,63.6748 130.5,68.5 Z"/></g>
<g><path style="opacity:1" fill="#021d31" d="M 201.5,89.5 C 203.178,98.3486 200.178,104.849 192.5,109C 181.578,110.431 170.578,110.931 159.5,110.5C 155.154,110.666 150.821,110.499 146.5,110C 142.321,108.319 139.321,105.485 137.5,101.5C 137.804,100.85 138.137,100.183 138.5,99.5C 135.972,98.1841 135.972,97.0174 138.5,96C 137.643,95.3109 136.977,94.4776 136.5,93.5C 138.019,91.4437 138.853,89.1104 139,86.5C 139.75,85.8742 140.584,85.3742 141.5,85C 141.5,83.3333 141.5,81.6667 141.5,80C 154.128,76.4593 167.128,75.7926 180.5,78C 181.849,78.7724 182.682,79.9391 183,81.5C 184.487,80.7471 184.654,79.9138 183.5,79C 185.833,78.3333 188.167,78.3333 190.5,79C 189.62,80.3561 189.286,81.8561 189.5,83.5C 191.467,83.2606 193.301,83.5939 195,84.5C 195.192,86.5767 195.692,88.5767 196.5,90.5C 197.88,88.3345 199.547,88.0012 201.5,89.5 Z"/></g>
<g><path style="opacity:1" fill="#00baf2" d="M 181.5,82.5 C 189.27,83.4329 192.77,87.7663 192,95.5C 186.667,103.5 181.333,103.5 176,95.5C 175.333,93.1667 175.333,90.8333 176,88.5C 178.04,86.6298 179.873,84.6298 181.5,82.5 Z"/></g>
<g><path style="opacity:1" fill="#00c4f0" d="M 150.5,82.5 C 155.476,82.2384 159.309,84.2384 162,88.5C 162.851,93.9582 160.685,97.7915 155.5,100C 147.022,100.288 143.855,96.1213 146,87.5C 147.025,85.313 148.525,83.6464 150.5,82.5 Z"/></g>
<g><path style="opacity:1" fill="#83a6af" d="M 208.5,72.5 C 209.434,73.5676 209.768,74.901 209.5,76.5C 209.401,79.2372 209.735,81.9039 210.5,84.5C 210.5,90.8333 210.5,97.1667 210.5,103.5C 210.784,105.415 210.451,107.081 209.5,108.5C 209.539,96.4869 209.206,84.4869 208.5,72.5 Z"/></g>
<g><path style="opacity:1" fill="#0496c2" d="M 146.5,19.5 C 145.251,21.1361 143.584,22.3028 141.5,23C 141.306,24.4299 141.306,25.9299 141.5,27.5C 139.712,28.2826 138.712,29.6159 138.5,31.5C 132.562,34.4734 126.896,37.9734 121.5,42C 106.186,52.8117 96.519,67.3117 92.5,85.5C 87.7052,102.862 88.7052,119.862 95.5,136.5C 100.782,150.969 109.449,163.136 121.5,173C 132.288,179.626 143.954,184.292 156.5,187C 167.527,187.74 178.527,187.574 189.5,186.5C 194.484,185.725 199.484,185.058 204.5,184.5C 204.703,186.39 204.037,187.89 202.5,189C 198.757,190.136 195.09,191.47 191.5,193C 187.309,193.922 183.309,193.588 179.5,192C 182.877,191.548 186.211,190.882 189.5,190C 187.291,188.309 185.458,188.476 184,190.5C 183.692,189.692 183.192,189.025 182.5,188.5C 176.242,188.584 169.908,188.751 163.5,189C 162.167,189.667 160.833,190.333 159.5,191C 161.349,192.093 163.016,193.426 164.5,195C 170.157,195.499 175.824,195.666 181.5,195.5C 150.31,199.102 124.31,189.102 103.5,165.5C 102.177,162.183 100.843,158.85 99.5,155.5C 94.9654,152.393 92.6321,148.393 92.5,143.5C 90.8035,142.636 89.6368,141.303 89,139.5C 78.2248,108.841 82.5581,79.1745 102,50.5C 106.425,45.9168 110.592,41.2502 114.5,36.5C 123.953,28.7706 134.62,23.1039 146.5,19.5 Z"/></g>
<g><path style="opacity:1" fill="#0a9ec7" d="M 208.5,24.5 C 251.02,52.5443 265.187,91.2109 251,140.5C 237.963,171.711 214.796,190.044 181.5,195.5C 175.824,195.666 170.157,195.499 164.5,195C 163.016,193.426 161.349,192.093 159.5,191C 160.833,190.333 162.167,189.667 163.5,189C 169.908,188.751 176.242,188.584 182.5,188.5C 183.192,189.025 183.692,189.692 184,190.5C 185.458,188.476 187.291,188.309 189.5,190C 186.211,190.882 182.877,191.548 179.5,192C 183.309,193.588 187.309,193.922 191.5,193C 195.09,191.47 198.757,190.136 202.5,189C 204.037,187.89 204.703,186.39 204.5,184.5C 199.484,185.058 194.484,185.725 189.5,186.5C 189.5,185.833 189.833,185.5 190.5,185.5C 198.366,183.11 205.7,179.777 212.5,175.5C 215.109,174.557 217.109,172.89 218.5,170.5C 234.081,158.696 243.581,143.029 247,123.5C 253.031,81.2211 237.197,50.5544 199.5,31.5C 200.376,31.6309 201.043,31.2975 201.5,30.5C 197.867,28.4867 194.2,26.3201 190.5,24C 196.433,24.108 202.267,24.9413 208,26.5C 208.464,25.9056 208.631,25.2389 208.5,24.5 Z"/></g>
<g><path style="opacity:1" fill="#f6fafb" d="M 204.5,142.5 C 205.822,144.311 206.322,146.311 206,148.5C 205.692,147.692 205.192,147.025 204.5,146.5C 197.002,148.496 191.002,152.663 186.5,159C 180.494,161.332 175.16,164.666 170.5,169C 165.803,170.606 160.969,171.439 156,171.5C 148.709,171.191 141.543,170.191 134.5,168.5C 132.574,167.758 130.741,166.758 129,165.5C 128.333,158.833 128.333,152.167 129,145.5C 130.563,142.272 133.063,140.105 136.5,139C 155.802,137.186 175.135,137.186 194.5,139C 198.245,139.302 201.578,140.469 204.5,142.5 Z"/></g>
<g><path style="opacity:1" fill="#edf9fb" d="M 115.5,145.5 C 116.5,145.5 117.5,145.5 118.5,145.5C 118.826,149.884 118.492,154.217 117.5,158.5C 114.45,156.451 112.117,153.784 110.5,150.5C 111.882,148.451 113.548,146.785 115.5,145.5 Z"/></g>
<g><path style="opacity:1" fill="#133347" d="M 160.5,147.5 C 164.902,147.228 169.235,147.561 173.5,148.5C 174.474,150.743 174.808,153.076 174.5,155.5C 163.475,154.813 152.475,154.647 141.5,155C 140.577,152.959 140.244,150.792 140.5,148.5C 147.354,148.824 154.021,148.491 160.5,147.5 Z"/></g>
<g><path style="opacity:1" fill="#d8e3e5" d="M 222.5,145.5 C 224.235,147.235 225.568,149.235 226.5,151.5C 224.176,154.827 221.843,158.16 219.5,161.5C 218.511,155.678 217.844,149.678 217.5,143.5C 219.322,143.831 220.989,144.498 222.5,145.5 Z"/></g>
<g><path style="opacity:1" fill="#c8d4d5" d="M 204.5,142.5 C 207.331,145.088 208.665,148.421 208.5,152.5C 208.5,157.833 208.5,163.167 208.5,168.5C 189.967,174.265 170.967,176.432 151.5,175C 148.883,174.178 146.216,173.678 143.5,173.5C 142.791,172.596 141.791,172.263 140.5,172.5C 138.5,171.167 136.5,169.833 134.5,168.5C 141.543,170.191 148.709,171.191 156,171.5C 160.969,171.439 165.803,170.606 170.5,169C 175.16,164.666 180.494,161.332 186.5,159C 191.002,152.663 197.002,148.496 204.5,146.5C 205.192,147.025 205.692,147.692 206,148.5C 206.322,146.311 205.822,144.311 204.5,142.5 Z"/></g>
<g><path style="opacity:1" fill="#042d3f" d="M 208.5,152.5 C 209.308,158.835 209.975,165.335 210.5,172C 210.608,173.681 211.275,174.848 212.5,175.5C 205.7,179.777 198.366,183.11 190.5,185.5C 192.611,181.602 195.945,179.435 200.5,179C 198.557,175.264 196.057,174.764 193,177.5C 181.287,177.244 169.787,177.244 158.5,177.5C 153.851,176.85 149.184,176.35 144.5,176C 143.001,175.162 142.668,174.329 143.5,173.5C 146.216,173.678 148.883,174.178 151.5,175C 170.967,176.432 189.967,174.265 208.5,168.5C 208.5,163.167 208.5,157.833 208.5,152.5 Z"/></g>
<g><path style="opacity:1" fill="#002441" d="M 95.5,136.5 C 96.9308,137.446 98.2642,138.612 99.5,140C 99.1667,140.333 98.8333,140.667 98.5,141C 100.992,145.014 103.325,149.18 105.5,153.5C 108.393,154.226 110.059,156.059 110.5,159C 113.11,160.481 115.777,161.648 118.5,162.5C 118.5,161.5 118.5,160.5 118.5,159.5C 119.5,159.5 120.5,159.5 121.5,159.5C 122.217,155.4 122.384,151.4 122,147.5C 122.89,153.146 123.89,153.479 125,148.5C 125.401,153.011 125.901,157.511 126.5,162C 126.167,163.167 125.833,164.333 125.5,165.5C 124.549,164.674 123.549,164.508 122.5,165C 123.38,166.356 123.714,167.856 123.5,169.5C 125.199,169.38 126.865,169.046 128.5,168.5C 132.144,170.826 136.144,172.159 140.5,172.5C 141.791,172.263 142.791,172.596 143.5,173.5C 142.668,174.329 143.001,175.162 144.5,176C 149.184,176.35 153.851,176.85 158.5,177.5C 169.787,177.244 181.287,177.244 193,177.5C 196.057,174.764 198.557,175.264 200.5,179C 195.945,179.435 192.611,181.602 190.5,185.5C 189.833,185.5 189.5,185.833 189.5,186.5C 178.527,187.574 167.527,187.74 156.5,187C 143.954,184.292 132.288,179.626 121.5,173C 109.449,163.136 100.782,150.969 95.5,136.5 Z"/></g>
<g><path style="opacity:0.844" fill="#010412" d="M 162.5,205.5 C 170.663,206.116 172.997,209.949 169.5,217C 165.612,219.223 162.112,218.723 159,215.5C 158.182,211.469 159.349,208.136 162.5,205.5 Z"/></g>
<g><path style="opacity:1" fill="#02132b" d="M 230.5,208.5 C 235.319,209.959 239.819,212.292 244,215.5C 248.117,222.037 246.783,227.037 240,230.5C 238.278,230.389 238.112,229.889 239.5,229C 239.218,220.929 235.051,216.762 227,216.5C 224.333,217.833 221.667,217.833 219,216.5C 218.682,218.061 217.849,219.228 216.5,220C 218.004,221.337 219.004,223.004 219.5,225C 219.171,232.727 219.004,240.56 219,248.5C 224.643,249.906 230.31,251.239 236,252.5C 237,251.5 238,250.5 239,249.5C 240.011,250.337 241.178,250.67 242.5,250.5C 242.95,254.224 241.283,256.391 237.5,257C 230.986,257.58 224.653,258.413 218.5,259.5C 215.223,259.784 212.057,259.451 209,258.5C 208.211,241.81 208.544,225.143 210,208.5C 216.784,207.618 223.618,207.618 230.5,208.5 Z M 221.5,218.5 C 225.605,218.234 229.605,218.734 233.5,220C 236.25,223.012 235.917,225.679 232.5,228C 228.582,229.156 224.582,229.656 220.5,229.5C 220.244,225.731 220.577,222.064 221.5,218.5 Z"/></g>
<g><path style="opacity:0.711" fill="#040415" d="M 110.5,204.5 C 117.704,204.864 120.537,208.531 119,215.5C 117.745,217.594 115.912,218.594 113.5,218.5C 111.182,218.003 108.848,217.67 106.5,217.5C 105.17,213.797 105.336,210.13 107,206.5C 108.302,205.915 109.469,205.249 110.5,204.5 Z"/></g>
<g><path style="opacity:0.778" fill="#010315" d="M 32.5,206.5 C 40.0956,206.898 42.4289,210.398 39.5,217C 36.0409,218.706 32.5409,218.872 29,217.5C 27.2313,212.91 28.398,209.243 32.5,206.5 Z"/></g>
<g><path style="opacity:1" fill="#011329" d="M 304.5,259.5 C 300.714,258.638 298.214,256.304 297,252.5C 295.264,245.669 295.097,238.836 296.5,232C 295.552,231.517 294.552,231.351 293.5,231.5C 293.611,230.883 293.944,230.383 294.5,230C 293.426,229.261 292.759,228.261 292.5,227C 293.744,224.618 295.577,222.785 298,221.5C 298.498,218.518 298.665,215.518 298.5,212.5C 300.92,212.292 303.253,212.626 305.5,213.5C 306.204,216.704 306.87,219.871 307.5,223C 309.81,223.497 312.143,223.663 314.5,223.5C 314.739,225.467 314.406,227.301 313.5,229C 310.905,229.226 308.405,229.726 306,230.5C 305.123,237.249 305.456,243.916 307,250.5C 309.069,251.264 311.236,251.764 313.5,252C 314.895,254.075 314.562,255.908 312.5,257.5C 309.694,258.168 307.028,258.834 304.5,259.5 Z"/></g>
<g><path style="opacity:1" fill="#02112d" d="M 194.5,231.5 C 184.909,232.072 181.909,236.739 185.5,245.5C 184.475,245.897 184.308,246.563 185,247.5C 189.739,252.37 194.739,252.703 200,248.5C 207.087,250.58 207.254,253.08 200.5,256C 182.311,261.471 173.811,254.637 175,235.5C 177.988,227.625 183.488,224.292 191.5,225.5C 191.5,224.5 191.5,223.5 191.5,222.5C 196.25,222.208 199.916,224.042 202.5,228C 198.558,228.993 194.558,229.66 190.5,230C 192.058,230.21 193.391,230.71 194.5,231.5 Z"/></g>
<g><path style="opacity:1" fill="#01091b" d="M 218.5,259.5 C 224.653,258.413 230.986,257.58 237.5,257C 241.283,256.391 242.95,254.224 242.5,250.5C 241.178,250.67 240.011,250.337 239,249.5C 238,250.5 237,251.5 236,252.5C 230.31,251.239 224.643,249.906 219,248.5C 219.004,240.56 219.171,232.727 219.5,225C 219.004,223.004 218.004,221.337 216.5,220C 217.849,219.228 218.682,218.061 219,216.5C 221.667,217.833 224.333,217.833 227,216.5C 235.051,216.762 239.218,220.929 239.5,229C 238.112,229.889 238.278,230.389 240,230.5C 246.783,227.037 248.117,222.037 244,215.5C 239.819,212.292 235.319,209.959 230.5,208.5C 237.756,207.883 243.256,210.883 247,217.5C 248.874,224.011 247.041,229.178 241.5,233C 248.666,235.834 251.166,241.001 249,248.5C 242.894,257.876 234.227,261.876 223,260.5C 221.644,259.62 220.144,259.286 218.5,259.5 Z M 221.5,218.5 C 220.577,222.064 220.244,225.731 220.5,229.5C 224.582,229.656 228.582,229.156 232.5,228C 235.917,225.679 236.25,223.012 233.5,220C 229.605,218.734 225.605,218.234 221.5,218.5 Z M 225.5,238.5 C 229.22,238.564 232.886,239.064 236.5,240C 239.198,242.995 238.865,245.662 235.5,248C 230.511,248.499 225.511,248.666 220.5,248.5C 220.5,245.5 220.5,242.5 220.5,239.5C 222.415,239.784 224.081,239.451 225.5,238.5 Z"/></g>
<g><path style="opacity:0.932" fill="#020614" d="M 304.5,259.5 C 307.028,258.834 309.694,258.168 312.5,257.5C 314.562,255.908 314.895,254.075 313.5,252C 311.236,251.764 309.069,251.264 307,250.5C 305.456,243.916 305.123,237.249 306,230.5C 308.405,229.726 310.905,229.226 313.5,229C 314.406,227.301 314.739,225.467 314.5,223.5C 312.143,223.663 309.81,223.497 307.5,223C 306.87,219.871 306.204,216.704 305.5,213.5C 303.253,212.626 300.92,212.292 298.5,212.5C 298.665,215.518 298.498,218.518 298,221.5C 295.577,222.785 293.744,224.618 292.5,227C 292.759,228.261 293.426,229.261 294.5,230C 293.944,230.383 293.611,230.883 293.5,231.5C 291.598,228.663 290.931,225.329 291.5,221.5C 293.167,221.5 294.833,221.5 296.5,221.5C 296.177,217.774 296.511,214.107 297.5,210.5C 301.094,211.426 304.76,211.759 308.5,211.5C 308.74,214.579 308.407,217.579 307.5,220.5C 310.428,221.484 313.428,221.817 316.5,221.5C 315.841,224.455 315.508,227.455 315.5,230.5C 312.833,230.833 310.167,231.167 307.5,231.5C 307.5,237.5 307.5,243.5 307.5,249.5C 310.167,249.5 312.833,249.5 315.5,249.5C 315.5,252.833 315.5,256.167 315.5,259.5C 311.833,259.5 308.167,259.5 304.5,259.5 Z"/></g>
<g><path style="opacity:1" fill="#03162d" d="M 90.5,206.5 C 94.226,206.177 97.8927,206.511 101.5,207.5C 101.709,208.086 102.043,208.586 102.5,209C 101.993,225.725 101.493,242.558 101,259.5C 97.9832,259.781 94.8166,259.781 91.5,259.5C 90.9406,241.906 90.6073,224.239 90.5,206.5 Z"/></g>
<g><path style="opacity:0.895" fill="#010516" d="M 147.5,222.5 C 139.964,224.172 132.798,227.172 126,231.5C 125.867,234.525 124.867,237.192 123,239.5C 122.826,244.684 122.326,249.684 121.5,254.5C 120.488,243.852 120.321,233.186 121,222.5C 124.409,221.378 127.909,221.211 131.5,222C 132.212,223.425 132.379,224.925 132,226.5C 136.335,221.626 141.502,220.293 147.5,222.5 Z"/></g>
<g><path style="opacity:1" fill="#011230" d="M 147.5,222.5 C 152.522,224.853 155.355,228.853 156,234.5C 155.927,242.818 155.594,251.152 155,259.5C 151.651,259.746 148.151,259.746 144.5,259.5C 144.666,251.826 144.5,244.159 144,236.5C 140.315,231.416 136.315,231.416 132,236.5C 132.522,244.127 132.522,251.794 132,259.5C 131.586,259.957 131.086,260.291 130.5,260.5C 127.891,259.77 125.224,259.27 122.5,259C 121.62,257.644 121.286,256.144 121.5,254.5C 122.326,249.684 122.826,244.684 123,239.5C 124.867,237.192 125.867,234.525 126,231.5C 132.798,227.172 139.964,224.172 147.5,222.5 Z"/></g>
<g><path style="opacity:1" fill="#031326" d="M 266.5,220.5 C 280.805,219.812 289.138,226.479 291.5,240.5C 289.316,252.625 281.982,259.292 269.5,260.5C 257.718,258.215 251.385,251.048 250.5,239C 252.48,229.858 257.814,223.691 266.5,220.5 Z M 272.5,249.5 C 271.5,249.5 270.5,249.5 269.5,249.5C 265.092,248.094 263.092,245.094 263.5,240.5C 264.056,231.881 268.389,229.381 276.5,233C 281.378,240.027 280.045,245.527 272.5,249.5 Z"/></g>
<g><path style="opacity:1" fill="#001937" d="M 269.5,249.5 C 270.5,249.5 271.5,249.5 272.5,249.5C 272.082,250.222 271.416,250.722 270.5,251C 272.183,253.014 274.183,254.68 276.5,256C 266.641,260.151 259.141,257.318 254,247.5C 253.688,244.691 254.188,242.024 255.5,239.5C 256.833,239.5 258.167,239.5 259.5,239.5C 259.342,236.455 260.009,233.621 261.5,231C 260.833,230.333 260.167,229.667 259.5,229C 261.345,227.872 263.345,227.372 265.5,227.5C 265.657,228.873 265.49,230.207 265,231.5C 258.497,238.461 258.997,244.628 266.5,250C 267.749,250.74 268.749,250.573 269.5,249.5 Z"/></g>
<g><path style="opacity:0.835" fill="#050714" d="M 159.5,221.5 C 163.167,221.5 166.833,221.5 170.5,221.5C 170.667,233.838 170.5,246.171 170,258.5C 166.667,259.833 163.333,259.833 160,258.5C 159.5,246.171 159.333,233.838 159.5,221.5 Z"/></g>
<g><path style="opacity:1" fill="#03162d" d="M 161.5,223.5 C 163.833,223.5 166.167,223.5 168.5,223.5C 168.5,234.833 168.5,246.167 168.5,257.5C 166.167,257.5 163.833,257.5 161.5,257.5C 161.5,246.167 161.5,234.833 161.5,223.5 Z"/></g>
<g><path style="opacity:1" fill="#02142a" d="M 30.5,222.5 C 34.0297,221.989 37.1963,222.656 40,224.5C 40.6667,236.167 40.6667,247.833 40,259.5C 39.4387,260.022 38.772,260.355 38,260.5C 35.5217,259.668 33.0217,259.501 30.5,260C 29.7511,258.266 29.2511,256.433 29,254.5C 28.5071,243.74 29.0071,233.074 30.5,222.5 Z"/></g>
<g><path style="opacity:1" fill="#010721" d="M 112.5,221.5 C 113.833,221.5 115.167,221.5 116.5,221.5C 116.965,233.837 117.132,246.17 117,258.5C 113.333,259.833 109.667,259.833 106,258.5C 105.5,246.505 105.333,234.505 105.5,222.5C 108.059,222.802 110.393,222.468 112.5,221.5 Z"/></g>
<g><path style="opacity:0.849" fill="#010516" d="M 194.5,231.5 C 193.391,230.71 192.058,230.21 190.5,230C 194.558,229.66 198.558,228.993 202.5,228C 199.916,224.042 196.25,222.208 191.5,222.5C 191.5,223.5 191.5,224.5 191.5,225.5C 183.488,224.292 177.988,227.625 175,235.5C 173.811,254.637 182.311,261.471 200.5,256C 207.254,253.08 207.087,250.58 200,248.5C 194.739,252.703 189.739,252.37 185,247.5C 184.308,246.563 184.475,245.897 185.5,245.5C 187.039,248.106 189.372,249.439 192.5,249.5C 195.845,248.238 199.178,247.405 202.5,247C 204.954,248.74 206.454,250.907 207,253.5C 198.363,260.395 189.196,261.228 179.5,256C 170.274,245.985 170.274,235.985 179.5,226C 188.708,218.713 197.708,218.88 206.5,226.5C 207.521,227.002 207.688,227.668 207,228.5C 204.667,230.833 202.333,233.167 200,235.5C 198.568,233.561 196.735,232.228 194.5,231.5 Z"/></g>
<g><path style="opacity:1" fill="#031428" d="M 64.5,207.5 C 74.3604,206.497 82.027,209.997 87.5,218C 85.0664,220.434 82.5664,222.934 80,225.5C 71.2008,216.908 63.5341,217.908 57,228.5C 54.8372,235.671 57.0038,241.837 63.5,247C 69.9022,249.812 75.4022,248.645 80,243.5C 83.7749,244.942 86.6083,247.442 88.5,251C 74.0706,264.176 60.5706,263.343 48,248.5C 39.7702,228.982 45.2702,215.315 64.5,207.5 Z"/></g>
</svg>
