<svg version="1.1" id="Layer_1" xmlns="http://www.w3.org/2000/svg" xmlns:xlink="http://www.w3.org/1999/xlink" x="0px" y="0px"
	 width="100%" viewBox="0 0 488 632" enable-background="new 0 0 488 632" xml:space="preserve">
<path fill="#030303" opacity="1.000000" stroke="none" 
	d="
M227.302933,405.854736 
	C223.664597,406.491302 222.617065,404.908478 221.989853,401.960419 
	C218.737869,386.675110 215.274643,371.434692 211.874054,356.181091 
	C211.596283,354.935089 211.236313,353.707367 210.173004,352.537872 
	C210.173004,370.120941 210.173004,387.704010 210.173004,405.568329 
	C205.314835,405.568329 200.915375,405.568329 195.908539,405.568329 
	C195.908539,403.782806 195.908524,402.016846 195.908539,400.250854 
	C195.908829,369.108765 195.933792,337.966644 195.863281,306.824707 
	C195.857559,304.293304 195.198898,301.763367 194.815063,299.029083 
	C200.529190,299.029083 206.763718,299.029083 213.438156,299.029083 
	C217.374283,316.549805 221.322098,334.122528 225.269913,351.695221 
	C225.558289,351.666168 225.846680,351.637115 226.135056,351.608063 
	C226.135056,334.305603 226.135056,317.003174 226.135056,299.350403 
	C230.976547,299.350403 235.378494,299.350403 240.116730,299.350403 
	C240.116730,334.560394 240.116730,369.924774 240.116730,405.854736 
	C235.959183,405.854736 231.860764,405.854736 227.302933,405.854736 
z"/>
<path fill="#040404" opacity="1.000000" stroke="none" 
	d="
M350.352478,353.665771 
	C354.415741,356.162079 355.973358,359.599182 355.961121,363.916840 
	C355.931854,374.235596 356.030914,384.555328 355.921356,394.873016 
	C355.853027,401.302582 352.107758,405.754242 346.098053,405.896515 
	C334.646027,406.167603 323.183075,405.975128 311.164124,405.975128 
	C311.164124,403.932068 311.164093,402.161682 311.164093,400.391266 
	C311.164307,369.101898 311.185120,337.812469 311.123505,306.523224 
	C311.118835,304.164337 310.527313,301.806610 310.161346,299.098694 
	C322.062805,299.098694 334.596130,298.893555 347.116913,299.201141 
	C352.027100,299.321747 355.770477,303.792297 355.863373,309.129425 
	C356.057434,320.276642 356.061554,331.432404 355.847534,342.578979 
	C355.753296,347.487915 352.808380,350.760254 347.655945,352.343506 
	C348.857819,352.911346 349.452454,353.192291 350.352478,353.665771 
M333.515228,389.803497 
	C336.134155,389.803497 338.753082,389.803497 341.688110,389.803497 
	C341.688110,379.908997 341.688110,370.499847 341.688110,360.811401 
	C335.294098,360.811401 329.075806,360.811401 323.369354,360.811401 
	C327.781281,370.088043 323.673950,380.211456 325.897614,389.803497 
	C328.251770,389.803497 330.410217,389.803497 333.515228,389.803497 
M325.231659,315.193390 
	C324.421173,315.193390 323.610687,315.193390 323.087524,315.193390 
	C327.894897,324.456665 323.729340,334.574982 325.793610,344.179108 
	C331.120392,344.179108 336.349335,344.179108 341.436646,344.179108 
	C341.436646,334.364868 341.436646,324.848785 341.436646,315.192871 
	C336.044891,315.192871 331.068268,315.192871 325.231659,315.193390 
z"/>
<path fill="#040404" opacity="1.000000" stroke="none" 
	d="
M361.832428,393.773315 
	C361.832062,365.993835 361.820587,338.685852 361.838287,311.377838 
	C361.844116,302.393982 365.219055,299.031342 374.188568,298.999146 
	C381.015472,298.974609 387.842834,298.953125 394.669434,299.005280 
	C402.544952,299.065430 406.258240,302.698334 406.275391,310.672333 
	C406.335541,338.646240 406.342377,366.620483 406.267181,394.594330 
	C406.246521,402.274048 402.507812,405.815613 394.855774,405.850342 
	C387.862427,405.882111 380.868774,405.865295 373.875275,405.855072 
	C365.420959,405.842743 362.263397,402.791229 361.832428,393.773315 
M375.894135,338.500336 
	C375.894135,355.446075 375.894135,372.391785 375.894135,389.412170 
	C381.586884,389.412170 386.787476,389.412170 391.959961,389.412170 
	C391.959961,364.471039 391.959961,339.894135 391.959961,315.324524 
	C385.534393,315.324524 379.377930,315.324524 373.971924,315.324524 
	C374.642151,317.829498 375.676361,320.145050 375.808807,322.511047 
	C376.087708,327.493591 375.893890,332.502563 375.894135,338.500336 
z"/>
<path fill="#0A0A0A" opacity="1.000000" stroke="none" 
	d="
M316.007111,578.012878 
	C294.691071,588.622437 273.691315,599.034180 252.787643,609.635498 
	C250.075333,611.011047 248.021225,610.792236 245.424652,609.567444 
	C187.411072,582.204529 129.360275,554.920593 71.331711,527.589355 
	C69.886673,526.908752 68.613594,525.862915 67.333084,524.752808 
	C103.714767,538.161194 139.207733,553.845947 175.162704,568.371643 
	C198.569901,577.828064 221.873657,587.542603 245.158585,597.297058 
	C248.172958,598.559875 250.569382,598.418701 253.512589,597.114990 
	C309.872040,572.151001 366.277344,547.290527 422.681122,522.426697 
	C424.257751,521.731689 425.921936,521.235291 427.545288,520.646301 
	C427.739502,521.090393 427.933685,521.534546 428.127899,521.978638 
	C390.869659,540.610352 353.611420,559.242065 316.007111,578.012878 
z"/>
<path fill="#0A0A0A" opacity="1.000000" stroke="none" 
	d="
M324.225616,40.881592 
	C360.390656,54.681885 396.181610,68.375458 431.972565,82.069031 
	C431.850922,82.499687 431.729279,82.930336 431.607605,83.360992 
	C429.993744,82.918991 428.359222,82.540710 426.768951,82.025780 
	C369.498932,63.481544 312.222198,44.957802 254.989807,26.298101 
	C250.971832,24.988104 247.450470,25.037544 243.444778,26.344103 
	C187.322159,44.649815 131.154800,62.818363 74.991119,80.998039 
	C72.845604,81.692528 70.627647,82.163177 68.443443,82.738136 
	C68.337997,82.297791 68.232552,81.857445 68.127098,81.417107 
	C84.419022,75.206268 100.715477,69.007294 117.001991,62.782303 
	C159.866852,46.398598 202.717957,29.978710 245.620117,13.693306 
	C247.575790,12.950949 250.245285,12.664373 252.128647,13.372359 
	C276.084656,22.377863 299.957520,31.604504 324.225616,40.881592 
z"/>
<path fill="#0F0F0F" opacity="1.000000" stroke="none" 
	d="
M224.744141,216.485565 
	C227.691910,217.744919 230.328156,219.565201 232.993637,219.609085 
	C249.301071,219.877625 265.615143,219.743423 282.743683,219.743423 
	C277.501282,230.926239 272.496613,241.601929 267.252808,252.787689 
	C288.816956,252.787689 309.731476,252.787689 330.950073,252.787689 
	C330.950073,254.830566 330.950073,256.547791 330.950073,258.441162 
	C276.975525,258.441162 223.195984,258.441162 169.019714,258.441162 
	C168.909805,256.895447 168.796494,255.301880 168.656586,253.334396 
	C170.389008,253.093460 171.937683,252.878082 173.743973,252.626877 
	C173.743973,247.183029 173.694290,241.883270 173.753357,236.584717 
	C173.926849,221.024368 182.889328,212.077301 198.368912,211.977371 
	C202.534866,211.950470 206.794937,211.428574 210.842606,212.121765 
	C215.475494,212.915207 219.919861,214.809509 224.744141,216.485565 
M266.200012,241.658432 
	C268.702667,236.303146 271.205322,230.947876 273.752228,225.497940 
	C258.240417,225.497940 243.308151,225.497940 228.483276,225.497940 
	C225.954178,232.443710 223.583374,239.161194 221.019272,245.804077 
	C220.563934,246.983688 219.329773,248.705154 218.412949,248.732010 
	C210.482986,248.964188 202.543350,248.865677 194.638611,248.865677 
	C194.638611,246.677994 194.638611,245.087753 194.638611,243.183533 
	C201.827621,243.183533 208.780609,243.183533 215.881760,243.183533 
	C217.876282,237.848801 219.801651,232.747269 221.690948,227.632416 
	C223.675049,222.260925 223.232162,219.882538 217.485840,219.210999 
	C208.560257,218.167923 199.334961,218.171234 190.406525,219.201935 
	C184.400375,219.895264 180.618286,225.216232 180.055069,231.248108 
	C179.398300,238.281937 179.901703,245.424088 179.901703,252.977676 
	C181.303970,252.977676 182.923813,252.977676 184.543655,252.977676 
	C206.025085,252.977676 227.526947,252.431885 248.978287,253.235275 
	C258.081299,253.576202 263.839539,251.577728 266.200012,241.658432 
z"/>
<path fill="#070707" opacity="1.000000" stroke="none" 
	d="
M127.648102,405.815186 
	C119.020279,405.859406 110.865578,405.891327 102.711182,405.856079 
	C95.211685,405.823669 91.491371,402.205566 91.403816,394.432892 
	C91.265129,382.119385 91.364281,369.803162 91.363838,357.488098 
	C91.363281,342.177460 91.340279,326.866760 91.372528,311.556213 
	C91.392212,302.214264 94.726730,298.822113 103.895676,298.776337 
	C112.046654,298.735626 120.197990,298.767792 128.666046,298.767792 
	C128.666046,304.113434 128.666046,309.332916 128.666046,314.867859 
	C120.032455,314.867859 111.437538,314.867859 103.569443,314.867859 
	C104.198906,317.525909 105.278610,319.991241 105.289536,322.461304 
	C105.380074,342.929596 105.272720,363.398743 105.226173,383.867645 
	C105.222443,385.508209 105.225685,387.148743 105.225685,389.297363 
	C113.310852,389.297363 120.887238,389.297363 129.341843,389.297363 
	C128.907822,395.156372 128.514587,400.464996 127.648102,405.815186 
z"/>
<path fill="#050505" opacity="1.000000" stroke="none" 
	d="
M290.008728,405.858704 
	C286.513336,405.858704 283.514465,405.869293 280.515625,405.856659 
	C272.483032,405.822815 268.864227,402.362030 268.844086,394.380005 
	C268.788940,372.555084 268.821411,350.729950 268.825531,328.904877 
	C268.826813,322.074310 268.719299,315.240265 268.901459,308.414246 
	C269.045654,303.010376 272.570679,299.112976 277.907288,298.954346 
	C287.186096,298.678528 296.479034,298.877686 306.004517,298.877686 
	C306.004517,304.252411 306.004517,309.348114 306.004517,314.841980 
	C297.490479,314.841980 288.913361,314.841980 281.005127,314.841980 
	C281.652313,317.624054 282.725189,320.119659 282.736755,322.620148 
	C282.829834,342.777069 282.722748,362.934875 282.678040,383.092438 
	C282.673706,385.052979 282.677460,387.013519 282.677460,389.349243 
	C290.671967,389.349243 298.097443,389.349243 305.880798,389.349243 
	C305.880798,394.928833 305.880798,400.134003 305.880798,405.858704 
	C300.740784,405.858704 295.622986,405.858704 290.008728,405.858704 
z"/>
<path fill="#101010" opacity="1.000000" stroke="none" 
	d="
M331.811035,132.000092 
	C331.810730,139.823898 331.902191,147.149124 331.788574,154.471176 
	C331.617889,165.469635 325.256409,171.782181 314.294220,171.872833 
	C305.306519,171.947159 296.310303,172.100616 287.332947,171.786987 
	C283.573334,171.655655 281.131317,172.921173 278.871735,175.722824 
	C275.225708,180.243484 271.293793,184.533569 267.235779,189.205231 
	C262.860321,184.347198 258.695404,179.377487 254.113113,174.828201 
	C252.572250,173.298431 249.993805,172.079498 247.849121,172.012405 
	C234.846939,171.605728 229.110840,165.911423 229.096939,152.802460 
	C229.082123,138.820663 229.058914,124.838722 229.104614,110.857063 
	C229.142349,99.314194 235.492813,92.989532 247.026184,92.977242 
	C269.330475,92.953476 291.634857,92.952774 313.939148,92.977684 
	C325.109894,92.990150 331.612640,99.357491 331.789673,110.527702 
	C331.900421,117.516846 331.810760,124.509178 331.811035,132.000092 
M235.354874,105.527557 
	C235.241745,122.820000 234.963425,140.114792 235.209320,157.402130 
	C235.242798,159.756699 237.373001,163.058945 239.463516,164.169159 
	C242.333572,165.693405 246.087921,165.953156 249.472366,165.993210 
	C252.721283,166.031631 255.081711,166.798615 257.179779,169.398849 
	C260.278168,173.238892 263.766754,176.764099 267.213165,180.559891 
	C270.744446,176.574234 273.701385,172.705856 277.234924,169.466400 
	C279.078369,167.776367 281.907501,166.343964 284.342407,166.259186 
	C294.481384,165.906174 304.640442,166.180557 314.790802,166.084808 
	C322.009857,166.016724 325.942413,162.147125 325.985565,154.980820 
	C326.075653,140.004105 326.072418,125.026115 325.987823,110.049332 
	C325.946167,102.674850 322.289642,98.718719 315.062927,98.678047 
	C291.932220,98.547859 268.800323,98.626656 245.668884,98.643295 
	C241.115875,98.646568 237.646103,100.482704 235.354874,105.527557 
z"/>
<path fill="#020202" opacity="1.000000" stroke="none" 
	d="
M425.052307,329.005798 
	C425.052307,324.197937 425.052307,319.888641 425.052307,315.219666 
	C420.102203,315.219666 415.347321,315.219666 410.248474,315.219666 
	C410.248474,309.669556 410.248474,304.469055 410.248474,299.021484 
	C424.824310,299.021484 439.378235,299.021484 454.172180,299.021484 
	C454.172180,304.289551 454.172180,309.384674 454.172180,314.888397 
	C448.330475,314.888397 442.425385,314.888397 437.449829,314.888397 
	C438.063629,317.839478 439.087280,320.502869 439.099701,323.170990 
	C439.219910,348.982788 439.170288,374.795380 439.169189,400.607727 
	C439.169128,402.220184 439.169189,403.832642 439.169189,405.643341 
	C434.379120,405.643341 430.098541,405.643341 425.052307,405.643341 
	C425.052307,380.287079 425.052307,354.895691 425.052307,329.005798 
z"/>
<path fill="#030303" opacity="1.000000" stroke="none" 
	d="
M132.183228,299.618103 
	C137.219620,299.180634 142.203751,299.180634 147.689301,299.180634 
	C147.689301,329.139343 147.689301,359.160553 147.689301,389.690857 
	C155.728638,389.690857 163.288986,389.690857 171.048004,389.690857 
	C171.048004,395.265411 171.048004,400.327179 171.048004,405.622131 
	C158.729095,405.622131 146.642075,405.622131 133.767807,405.622131 
	C133.767807,403.911652 133.767761,402.175842 133.767807,400.440033 
	C133.768570,369.153290 133.801926,337.866425 133.699600,306.580017 
	C133.692474,304.403503 132.677353,302.230286 132.183228,299.618103 
z"/>
<path fill="#070707" opacity="1.000000" stroke="none" 
	d="
M187.768539,389.995422 
	C187.768539,395.299622 187.768539,400.105133 187.768539,405.245880 
	C183.061813,405.245880 178.648499,405.245880 173.509537,405.245880 
	C173.509537,403.551941 173.509506,401.793579 173.509552,400.035248 
	C173.510330,368.927155 173.533920,337.819031 173.468994,306.711090 
	C173.463745,304.196472 172.851166,301.683105 172.502151,299.027222 
	C177.181519,299.027222 182.253220,299.027222 187.768539,299.027222 
	C187.768539,329.356201 187.768539,359.426453 187.768539,389.995422 
z"/>
<path fill="#050505" opacity="1.000000" stroke="none" 
	d="
M248.717682,377.999817 
	C248.718292,354.040680 248.753357,330.581421 248.672043,307.122589 
	C248.662735,304.434448 248.003082,301.748505 247.640640,299.029114 
	C252.300323,299.029114 257.387939,299.029114 262.677460,299.029114 
	C262.677460,334.500763 262.677460,369.717621 262.677460,405.256073 
	C258.209961,405.256073 253.799164,405.256073 248.717575,405.256073 
	C248.717575,396.324799 248.717575,387.412323 248.717682,377.999817 
z"/>
<path fill="#030303" opacity="1.000000" stroke="none" 
	d="
M47.801289,335.999878 
	C47.787704,323.337006 47.773991,311.174133 47.760174,298.919586 
	C51.322533,298.919586 56.296265,298.919586 61.602142,298.919586 
	C61.602142,334.297363 61.602142,369.644409 61.602142,405.282654 
	C57.217220,405.282654 52.802334,405.282654 47.801159,405.282654 
	C47.801159,382.296478 47.801159,359.398193 47.801289,335.999878 
z"/>
<path fill="#111111" opacity="1.000000" stroke="none" 
	d="
M219.594818,209.623199 
	C208.665253,209.623245 198.189651,209.641220 187.714142,209.617554 
	C178.701248,209.597214 176.012573,206.944000 175.995361,198.132004 
	C175.986588,193.642487 175.935806,189.151962 176.010773,184.663681 
	C176.102966,179.143143 178.922958,175.648514 184.395966,175.531113 
	C197.024933,175.260178 209.667892,175.282761 222.297058,175.558487 
	C227.317719,175.668106 230.224152,178.848190 230.475784,183.895569 
	C230.756897,189.534409 230.779007,195.207535 230.510574,200.846527 
	C230.229889,206.742508 227.241074,209.049911 219.594818,209.623199 
M212.456268,181.017014 
	C203.799057,181.017105 195.140228,181.113388 186.485428,180.969177 
	C183.098099,180.912750 181.576553,182.074844 181.711151,185.582748 
	C181.876999,189.904984 181.936371,194.248871 181.694672,198.563965 
	C181.475800,202.471634 182.977081,203.898880 186.879486,203.816757 
	C195.699265,203.631210 204.525742,203.783264 213.349350,203.753891 
	C226.556183,203.709946 224.875168,205.053925 224.883026,192.417450 
	C224.891098,179.450333 226.388840,181.127792 212.456268,181.017014 
z"/>
<path fill="#0A0A0A" opacity="1.000000" stroke="none" 
	d="
M238.519409,451.575867 
	C238.519455,444.987122 238.519455,438.851654 238.519455,432.542419 
	C236.866943,432.211548 235.562073,431.950287 234.257217,431.689026 
	C234.288239,431.370331 234.319260,431.051605 234.350281,430.732910 
	C237.786041,430.732910 241.221786,430.732910 243.315323,430.732910 
	C242.566559,432.935577 241.297333,434.992554 241.255905,437.073944 
	C241.047714,447.530426 241.160400,457.993347 241.160400,470.241608 
	C238.432556,468.263672 236.428421,467.397949 235.281433,465.883209 
	C227.976471,456.235992 220.860428,446.445740 213.005463,435.784088 
	C213.005463,446.278748 213.005463,455.747986 213.005463,465.718170 
	C213.938049,466.094360 215.325958,466.654236 216.713867,467.214111 
	C216.679626,467.425934 216.645401,467.637726 216.611176,467.849548 
	C213.150146,467.849548 209.689117,467.849548 206.228104,467.849548 
	C206.191711,467.632416 206.155334,467.415283 206.118942,467.198120 
	C207.285446,466.701813 208.451950,466.205475 209.849518,465.610840 
	C209.849518,455.538574 209.966705,445.395752 209.720963,435.261719 
	C209.684830,433.771210 207.926453,432.322449 207.012375,430.926788 
	C212.768585,428.363403 218.847260,429.778198 222.809311,435.129547 
	C227.702316,441.738342 232.582550,448.356628 238.110733,455.840515 
	C238.326172,453.831146 238.422760,452.930145 238.519409,451.575867 
z"/>
<path fill="#111111" opacity="1.000000" stroke="none" 
	d="
M404.883636,468.220215 
	C398.586426,468.321930 392.685272,468.321930 386.568176,468.321930 
	C386.568176,463.218903 386.568176,459.575134 386.568176,455.931366 
	C386.899536,455.844513 387.230896,455.757629 387.562286,455.670776 
	C388.058533,456.912445 388.583771,458.143433 389.045746,459.397736 
	C390.642273,463.732269 393.792877,466.666626 398.302246,466.420654 
	C400.769989,466.286072 404.418274,464.330048 405.141937,462.329895 
	C405.855927,460.356354 404.233673,456.530731 402.404541,454.895844 
	C400.056549,452.797180 396.465454,452.104523 393.434143,450.751953 
	C388.073395,448.359955 385.715363,444.487671 386.459167,439.396942 
	C387.235596,434.082703 390.765747,430.267303 396.533478,430.057495 
	C401.405548,429.880280 406.323761,430.970367 411.145752,431.491364 
	C411.145752,435.071533 411.145752,437.875519 411.145752,440.679504 
	C410.872498,440.720581 410.599243,440.761658 410.325989,440.802734 
	C409.847076,439.624542 409.405151,438.429626 408.882538,437.271149 
	C407.086029,433.288757 402.770325,430.816833 398.654205,432.162140 
	C396.749664,432.784576 394.393982,434.791504 394.028137,436.543518 
	C393.693207,438.147308 395.313599,440.877869 396.872620,441.998199 
	C399.520447,443.900940 402.833954,444.855042 405.800903,446.341156 
	C410.152557,448.520874 413.791229,451.307526 413.530182,456.888336 
	C413.270050,462.450226 410.704895,466.340454 404.883636,468.220215 
z"/>
<path fill="#0F0F0F" opacity="1.000000" stroke="none" 
	d="
M354.333801,435.627258 
	C357.581207,443.318817 360.505829,450.746552 363.833435,457.989166 
	C365.421448,461.445557 367.775055,464.550140 369.718048,467.710236 
	C364.552734,467.710236 358.271637,467.710236 351.990540,467.710236 
	C351.942352,467.359619 351.894135,467.009003 351.845917,466.658386 
	C353.270386,466.269867 354.694855,465.881348 356.808502,465.304840 
	C355.430511,462.063629 356.526794,457.346558 351.433685,456.699036 
	C340.243713,455.276367 338.416351,456.509094 336.835754,465.508789 
	C338.169128,465.864441 339.540527,466.230225 340.911926,466.596008 
	C340.873474,466.949402 340.835022,467.302826 340.796570,467.656219 
	C337.011383,467.656219 333.226166,467.656219 330.574371,467.656219 
	C332.417572,464.828888 334.816528,461.980377 336.296478,458.715332 
	C339.997864,450.549255 343.211823,442.163544 346.793274,433.940826 
	C347.515442,432.282776 348.996643,430.955292 350.127899,429.475372 
	C351.312042,430.941467 352.522369,432.387665 353.661987,433.887573 
	C353.949524,434.266052 354.011078,434.816193 354.333801,435.627258 
M347.767853,442.178375 
	C347.397339,441.634674 347.026855,441.091003 346.366882,440.122559 
	C344.432098,444.846832 342.631470,449.243530 340.777802,453.769775 
	C345.006439,453.769775 348.516968,453.769775 352.591156,453.769775 
	C350.910980,449.781921 349.452545,446.320312 347.767853,442.178375 
z"/>
<path fill="#0F0F0F" opacity="1.000000" stroke="none" 
	d="
M151.540192,465.971252 
	C157.748932,466.177887 160.444305,462.636932 161.163025,456.677979 
	C161.612213,457.024597 162.061417,457.371185 162.510620,457.717804 
	C162.510620,461.044586 162.510620,464.371368 162.510620,467.809204 
	C153.163498,467.809204 143.688629,467.809204 135.269470,467.809204 
	C136.041946,465.194366 137.265030,462.835541 137.349777,460.436493 
	C137.613708,452.963257 137.609406,445.469177 137.350296,437.995605 
	C137.269333,435.660431 136.049500,433.364716 135.273300,430.793579 
	C139.719910,430.793579 145.168167,430.793579 150.616425,430.793579 
	C146.100723,432.299255 146.107117,435.460815 146.201538,439.143066 
	C146.426392,447.911713 146.274002,456.690063 146.274002,465.740723 
	C148.178680,465.832458 149.635162,465.902618 151.540192,465.971252 
z"/>
<path fill="#101010" opacity="1.000000" stroke="none" 
	d="
M117.517220,463.482422 
	C112.332336,469.356995 105.993797,469.630798 99.410217,468.087830 
	C92.878166,466.556915 88.651756,462.305145 86.913551,455.807678 
	C82.686676,440.007507 92.526649,428.450775 108.792404,430.027100 
	C113.437546,430.477264 118.069527,434.076569 118.789665,438.474304 
	C119.059105,440.119720 118.132782,442.216003 117.125473,443.674133 
	C116.782913,444.169952 113.663078,443.743286 113.323952,443.024689 
	C112.734505,441.775848 113.516739,439.952118 113.358711,438.406769 
	C113.201149,436.865967 113.088364,434.771881 112.100914,433.958954 
	C107.643867,430.289642 100.811707,431.940582 98.177383,437.390289 
	C94.747322,444.486237 94.930687,451.955597 97.407173,459.265289 
	C98.836319,463.483673 101.948753,466.180298 106.720367,466.342773 
	C111.227486,466.496277 114.231766,464.201721 116.370872,460.454254 
	C116.966393,459.410950 117.672813,458.430969 118.328346,457.421936 
	C118.849915,457.647308 119.371490,457.872711 119.893066,458.098083 
	C119.180641,459.800812 118.468224,461.503540 117.517220,463.482422 
z"/>
<path fill="#101010" opacity="1.000000" stroke="none" 
	d="
M297.790100,432.636383 
	C302.789917,431.642212 307.454163,430.331512 312.152466,430.195435 
	C316.722900,430.063049 321.353088,434.446167 321.907379,438.768829 
	C322.105896,440.316864 321.365479,442.338806 320.343414,443.540375 
	C319.833282,444.140045 316.902954,443.829865 316.518982,443.132233 
	C315.859863,441.934753 316.516785,440.084625 316.291534,438.557098 
	C316.046906,436.897949 315.950256,434.624390 314.876862,433.784515 
	C310.641541,430.470612 304.064026,431.862579 301.582428,436.811890 
	C297.559204,444.835999 297.353455,453.298859 301.537476,461.276459 
	C305.183685,468.228546 314.388763,468.128418 318.806335,461.481293 
	C319.680084,460.166534 320.411163,458.756958 321.793915,457.706757 
	C323.017853,462.199249 320.102722,464.768127 316.906891,466.711639 
	C309.694214,471.097931 298.688141,468.885681 293.240540,462.385590 
	C286.218292,454.006714 288.464966,436.541473 297.790100,432.636383 
z"/>
<path fill="#070707" opacity="1.000000" stroke="none" 
	d="
M189.752014,468.229858 
	C185.184296,468.233032 181.089172,468.233032 178.108643,468.233032 
	C178.816391,464.879730 179.843735,462.021362 179.946152,459.130249 
	C180.199463,451.980194 180.189163,444.809357 179.933105,437.659515 
	C179.854935,435.476562 178.633087,433.334625 177.804077,430.768616 
	C181.898148,430.768616 186.890991,430.768616 190.956589,430.768616 
	C190.281601,433.589905 189.147156,436.351074 189.043411,439.150452 
	C188.772308,446.465942 188.902679,453.798676 188.983658,461.123322 
	C189.006363,463.179138 187.878052,466.028290 191.620087,466.256256 
	C191.154938,466.913086 190.689789,467.569885 189.752014,468.229858 
z"/>
<path fill="#070707" opacity="1.000000" stroke="none" 
	d="
M262.997864,436.325043 
	C262.047974,434.251892 261.098297,432.643005 259.937195,430.675934 
	C264.958282,430.675934 269.972382,430.675934 273.835785,430.675934 
	C273.137390,433.478668 272.069794,435.921387 271.997681,438.393188 
	C271.769409,446.218414 271.795044,454.057678 272.003052,461.884064 
	C272.050201,463.659363 273.229401,465.404572 274.029633,467.543518 
	C270.014679,467.543518 264.979462,467.543518 261.093933,467.543518 
	C261.753906,465.027893 262.842957,462.670074 262.912506,460.282532 
	C263.140594,452.457275 262.998108,444.621216 262.997864,436.325043 
z"/>
<path fill="#191919" opacity="1.000000" stroke="none" 
	d="
M167.907501,196.683228 
	C167.902481,192.964478 167.902481,189.708145 167.902481,186.232605 
	C169.843231,186.232605 171.419968,186.232605 173.348785,186.232605 
	C173.348785,190.213287 173.348785,194.217194 173.348785,199.444809 
	C171.347260,198.598297 169.629898,197.871964 167.907501,196.683228 
z"/>
<path fill="#191919" opacity="1.000000" stroke="none" 
	d="
M237.896515,198.868378 
	C235.551880,198.976334 233.802643,199.141357 233.985916,196.243347 
	C234.192734,192.973572 234.033554,189.680634 234.033554,186.209259 
	C236.020569,186.209259 237.624756,186.209259 240.484604,186.209259 
	C239.762497,190.491150 239.056427,194.677902 237.896515,198.868378 
z"/>

<path fill="#111111" opacity="1.000000" stroke="none" 
	d="
M211.044922,194.843430 
	C211.044907,191.756973 211.044907,189.141037 211.044907,186.189911 
	C212.943207,186.189911 214.628372,186.189911 216.563232,186.189911 
	C216.563232,190.257446 216.563232,194.304001 216.563232,198.735092 
	C214.992905,198.844238 213.425247,198.953201 211.425766,199.092178 
	C211.289169,197.736969 211.167068,196.525467 211.044922,194.843430 
z"/>
<path fill="#020202" opacity="1.000000" stroke="none" 
	d="
M191.232269,198.585968 
	C190.879608,194.305740 190.879608,190.352753 190.879608,186.147598 
	C192.658844,186.147598 194.212753,186.147598 196.003311,186.147598 
	C196.003311,190.344238 196.003311,194.410248 196.003311,198.913239 
	C194.467392,198.913239 193.026154,198.913239 191.232269,198.585968 
z"/>
</svg>